<mxfile host="drawio-plugin" modified="2021-08-01T10:51:54.770Z" agent="5.0 (Macintosh; Intel Mac OS X 11_4_0) AppleWebKit/537.36 (KHTML, like Gecko) Chrome/89.0.4389.90 Safari/537.36" etag="N5y-8hY_FthFCsU7vmT8" version="14.7.4" type="embed" pages="2"><diagram id="23iRSUPoRavnBvh4doch" name="Page-1"><mxGraphModel dx="1435" dy="871" grid="0" gridSize="10" guides="0" tooltips="1" connect="1" arrows="1" fold="1" page="1" pageScale="1" pageWidth="827" pageHeight="1169" math="0" shadow="0"><root><mxCell id="0"/><mxCell id="1" parent="0"/><mxCell id="9" style="edgeStyle=orthogonalEdgeStyle;orthogonalLoop=1;jettySize=auto;html=1;exitX=0.5;exitY=0.5;exitDx=0;exitDy=0;exitPerimeter=0;entryX=0;entryY=0.5;entryDx=0;entryDy=0;sketch=1;strokeColor=#09555B;fontColor=#1A1A1A;" edge="1" parent="1" source="2" target="3"><mxGeometry relative="1" as="geometry"/></mxCell><mxCell id="23" value="Add" style="edgeLabel;html=1;align=center;verticalAlign=middle;resizable=0;points=[];sketch=1;fontColor=#1A1A1A;rounded=1;" vertex="1" connectable="0" parent="9"><mxGeometry x="0.7306" y="1" relative="1" as="geometry"><mxPoint as="offset"/></mxGeometry></mxCell><mxCell id="10" style="edgeStyle=orthogonalEdgeStyle;orthogonalLoop=1;jettySize=auto;html=1;exitX=0.5;exitY=0.5;exitDx=0;exitDy=0;exitPerimeter=0;sketch=1;strokeColor=#09555B;fontColor=#1A1A1A;" edge="1" parent="1" source="2" target="4"><mxGeometry relative="1" as="geometry"/></mxCell><mxCell id="24" value="View" style="edgeLabel;html=1;align=center;verticalAlign=middle;resizable=0;points=[];sketch=1;fontColor=#1A1A1A;rounded=1;" vertex="1" connectable="0" parent="10"><mxGeometry x="0.5407" y="-4" relative="1" as="geometry"><mxPoint as="offset"/></mxGeometry></mxCell><mxCell id="11" style="edgeStyle=orthogonalEdgeStyle;orthogonalLoop=1;jettySize=auto;html=1;exitX=0.5;exitY=0.5;exitDx=0;exitDy=0;exitPerimeter=0;entryX=0;entryY=0.5;entryDx=0;entryDy=0;sketch=1;strokeColor=#09555B;fontColor=#1A1A1A;" edge="1" parent="1" source="2" target="5"><mxGeometry relative="1" as="geometry"/></mxCell><mxCell id="25" value="View" style="edgeLabel;html=1;align=center;verticalAlign=middle;resizable=0;points=[];sketch=1;fontColor=#1A1A1A;rounded=1;" vertex="1" connectable="0" parent="11"><mxGeometry x="0.7435" y="3" relative="1" as="geometry"><mxPoint y="1" as="offset"/></mxGeometry></mxCell><mxCell id="2" value="User" style="shape=umlActor;verticalLabelPosition=bottom;verticalAlign=top;html=1;outlineConnect=0;sketch=1;fillColor=#FAD9D5;strokeColor=#D0CEE2;fontColor=#1A1A1A;rounded=1;" vertex="1" parent="1"><mxGeometry x="50" y="440" width="30" height="60" as="geometry"/></mxCell><mxCell id="16" style="edgeStyle=orthogonalEdgeStyle;orthogonalLoop=1;jettySize=auto;html=1;exitX=1;exitY=0.5;exitDx=0;exitDy=0;entryX=0;entryY=0.5;entryDx=0;entryDy=0;sketch=1;strokeColor=#09555B;fontColor=#1A1A1A;" edge="1" parent="1" source="3" target="6"><mxGeometry relative="1" as="geometry"/></mxCell><mxCell id="27" value="Push to" style="edgeLabel;html=1;align=center;verticalAlign=middle;resizable=0;points=[];sketch=1;fontColor=#1A1A1A;rounded=1;" vertex="1" connectable="0" parent="16"><mxGeometry x="-0.025" y="2" relative="1" as="geometry"><mxPoint as="offset"/></mxGeometry></mxCell><mxCell id="3" value="new pain" style="whiteSpace=wrap;html=1;sketch=1;fillColor=#FAD9D5;strokeColor=#D0CEE2;fontColor=#1A1A1A;rounded=1;" vertex="1" parent="1"><mxGeometry x="200" y="330" width="120" height="60" as="geometry"/></mxCell><mxCell id="13" style="edgeStyle=orthogonalEdgeStyle;orthogonalLoop=1;jettySize=auto;html=1;exitX=1;exitY=0.5;exitDx=0;exitDy=0;entryX=0;entryY=0.5;entryDx=0;entryDy=0;sketch=1;strokeColor=#09555B;fontColor=#1A1A1A;" edge="1" parent="1" source="4" target="7"><mxGeometry relative="1" as="geometry"/></mxCell><mxCell id="22" value="Vote for" style="edgeLabel;html=1;align=center;verticalAlign=middle;resizable=0;points=[];sketch=1;fontColor=#1A1A1A;rounded=1;" vertex="1" connectable="0" parent="13"><mxGeometry x="-0.12" y="-1" relative="1" as="geometry"><mxPoint as="offset"/></mxGeometry></mxCell><mxCell id="4" value="top pain list" style="whiteSpace=wrap;html=1;sketch=1;fillColor=#FAD9D5;strokeColor=#D0CEE2;fontColor=#1A1A1A;rounded=1;" vertex="1" parent="1"><mxGeometry x="200" y="440" width="120" height="60" as="geometry"/></mxCell><mxCell id="15" style="edgeStyle=orthogonalEdgeStyle;orthogonalLoop=1;jettySize=auto;html=1;exitX=0.5;exitY=1;exitDx=0;exitDy=0;entryX=0.5;entryY=0;entryDx=0;entryDy=0;sketch=1;strokeColor=#09555B;fontColor=#1A1A1A;" edge="1" parent="1" source="5" target="8"><mxGeometry relative="1" as="geometry"/></mxCell><mxCell id="5" value="pain cloud" style="whiteSpace=wrap;html=1;sketch=1;fillColor=#FAD9D5;strokeColor=#D0CEE2;fontColor=#1A1A1A;rounded=1;" vertex="1" parent="1"><mxGeometry x="200" y="554.5" width="120" height="60" as="geometry"/></mxCell><mxCell id="17" style="edgeStyle=orthogonalEdgeStyle;orthogonalLoop=1;jettySize=auto;html=1;exitX=0.5;exitY=1;exitDx=0;exitDy=0;entryX=0.5;entryY=0;entryDx=0;entryDy=0;sketch=1;strokeColor=#09555B;fontColor=#1A1A1A;" edge="1" parent="1" source="6" target="4"><mxGeometry relative="1" as="geometry"/></mxCell><mxCell id="29" value="Approve to" style="edgeLabel;html=1;align=center;verticalAlign=middle;resizable=0;points=[];sketch=1;fontColor=#1A1A1A;rounded=1;" vertex="1" connectable="0" parent="17"><mxGeometry x="0.016" y="-4" relative="1" as="geometry"><mxPoint as="offset"/></mxGeometry></mxCell><mxCell id="21" style="edgeStyle=orthogonalEdgeStyle;orthogonalLoop=1;jettySize=auto;html=1;exitX=1;exitY=0.5;exitDx=0;exitDy=0;sketch=1;strokeColor=#09555B;fontColor=#1A1A1A;" edge="1" parent="1" source="6" target="19"><mxGeometry relative="1" as="geometry"/></mxCell><mxCell id="28" value="Rejected to" style="edgeLabel;html=1;align=center;verticalAlign=middle;resizable=0;points=[];sketch=1;fontColor=#1A1A1A;rounded=1;" vertex="1" connectable="0" parent="21"><mxGeometry x="-0.18" y="2" relative="1" as="geometry"><mxPoint as="offset"/></mxGeometry></mxCell><mxCell id="6" value="full pain list" style="whiteSpace=wrap;html=1;sketch=1;fillColor=#FAD9D5;strokeColor=#D0CEE2;fontColor=#1A1A1A;rounded=1;" vertex="1" parent="1"><mxGeometry x="400" y="330" width="120" height="60" as="geometry"/></mxCell><mxCell id="14" style="edgeStyle=orthogonalEdgeStyle;orthogonalLoop=1;jettySize=auto;html=1;exitX=0.5;exitY=1;exitDx=0;exitDy=0;entryX=1;entryY=0.5;entryDx=0;entryDy=0;sketch=1;strokeColor=#09555B;fontColor=#1A1A1A;" edge="1" parent="1" source="7" target="5"><mxGeometry relative="1" as="geometry"/></mxCell><mxCell id="26" value="Generate" style="edgeLabel;html=1;align=center;verticalAlign=middle;resizable=0;points=[];sketch=1;fontColor=#1A1A1A;rounded=1;" vertex="1" connectable="0" parent="14"><mxGeometry x="0.3408" y="2" relative="1" as="geometry"><mxPoint x="1" as="offset"/></mxGeometry></mxCell><mxCell id="7" value="painful item" style="whiteSpace=wrap;html=1;sketch=1;fillColor=#FAD9D5;strokeColor=#D0CEE2;fontColor=#1A1A1A;rounded=1;" vertex="1" parent="1"><mxGeometry x="400" y="440" width="120" height="60" as="geometry"/></mxCell><mxCell id="8" value="share" style="whiteSpace=wrap;html=1;sketch=1;fillColor=#FAD9D5;strokeColor=#D0CEE2;fontColor=#1A1A1A;rounded=1;" vertex="1" parent="1"><mxGeometry x="200" y="670" width="120" height="60" as="geometry"/></mxCell><mxCell id="20" style="edgeStyle=orthogonalEdgeStyle;orthogonalLoop=1;jettySize=auto;html=1;entryX=0.5;entryY=0;entryDx=0;entryDy=0;sketch=1;strokeColor=#09555B;fontColor=#1A1A1A;" edge="1" parent="1" source="18" target="6"><mxGeometry relative="1" as="geometry"/></mxCell><mxCell id="31" value="Manage" style="edgeLabel;html=1;align=center;verticalAlign=middle;resizable=0;points=[];fontColor=#1A1A1A;rounded=1;" vertex="1" connectable="0" parent="20"><mxGeometry x="-0.0333" y="2" relative="1" as="geometry"><mxPoint as="offset"/></mxGeometry></mxCell><mxCell id="18" value="" style="shape=umlActor;verticalLabelPosition=bottom;verticalAlign=top;html=1;outlineConnect=0;sketch=1;fillColor=#FAD9D5;strokeColor=#D0CEE2;fontColor=#1A1A1A;rounded=1;" vertex="1" parent="1"><mxGeometry x="445" y="210" width="30" height="60" as="geometry"/></mxCell><mxCell id="19" value="rejected list" style="whiteSpace=wrap;html=1;sketch=1;fillColor=#FAD9D5;strokeColor=#D0CEE2;fontColor=#1A1A1A;rounded=1;" vertex="1" parent="1"><mxGeometry x="620" y="330" width="120" height="60" as="geometry"/></mxCell><mxCell id="30" value="Admin" style="text;html=1;align=center;verticalAlign=middle;resizable=0;points=[];autosize=1;strokeColor=none;fontColor=#1A1A1A;rounded=1;" vertex="1" parent="1"><mxGeometry x="476" y="233" width="44" height="18" as="geometry"/></mxCell></root></mxGraphModel></diagram><diagram id="qizRyDXUcbhUaZBbDoWH" name="Page-2"><mxGraphModel dx="1722" dy="1045" grid="0" gridSize="10" guides="0" tooltips="1" connect="1" arrows="1" fold="1" page="1" pageScale="1" pageWidth="850" pageHeight="1100" math="0" shadow="0"><root><mxCell id="XjrGb_f5wcJ0mxQ6_9gG-0"/><mxCell id="XjrGb_f5wcJ0mxQ6_9gG-1" parent="XjrGb_f5wcJ0mxQ6_9gG-0"/><mxCell id="XjrGb_f5wcJ0mxQ6_9gG-3" value="" style="shape=image;verticalLabelPosition=bottom;labelBackgroundColor=#ffffff;verticalAlign=top;aspect=fixed;imageAspect=0;image=data:image/png,iVBORw0KGgoAAAANSUhEUgAAAq8AAAYACAYAAABYZKG1AAAACXBIWXMAABRNAAAUTQGUyo0vAAABX2lDQ1BQaG90b3Nob3AgSUNDIHByb2ZpbGUAAHjarY0/KIRxHIefnz9dHYq8bjD9yp8MiDOwGO4oEXVkuPdM7733h3qdX+/7FjcpFqOSQZkYrIwyMBgkA4kMIquRkuL6GY7uLCbP8n16+tQXKlotpZwqYD7nu1MjURk3EzLwRIAAdYSQlu2pSCw2DvBzf/N2iwC47rKUcs6bN1falusnBrYab66em1b4m2Aq7dnAJ5C2leuDSAEti77yQawBhhs3EyC2ASNb9H3ASBb9FDDc6akhEHeAtGetFIh3oDNZ1rNl/v0XoGZ4zlOOlZexPv4dP73kAwwtqLw7l531ZUQpJy1Hc3Z3pwz39PZD3EzI4vp1EgGI0EWprT7C4LHW+qjUxo7hoB+Ch6XWMQANNXB2qCzXAqASqMhk4GUP6kxovITgjJfpCwMgaqNQ/aD1azsENqCwrvXHjtaFXai8h5PcFxUhZe5PzKoEAAA462lUWHRYTUw6Y29tLmFkb2JlLnhtcAAAAAAAPD94cGFja2V0IGJlZ2luPSLvu78iIGlkPSJXNU0wTXBDZWhpSHpyZVN6TlRjemtjOWQiPz4KPHg6eG1wbWV0YSB4bWxuczp4PSJhZG9iZTpuczptZXRhLyIgeDp4bXB0az0iQWRvYmUgWE1QIENvcmUgNS42LWMwNjcgNzkuMTU3NzQ3LCAyMDE1LzAzLzMwLTIzOjQwOjQyICAgICAgICAiPgogICA8cmRmOlJERiB4bWxuczpyZGY9Imh0dHA6Ly93d3cudzMub3JnLzE5OTkvMDIvMjItcmRmLXN5bnRheC1ucyMiPgogICAgICA8cmRmOkRlc2NyaXB0aW9uIHJkZjphYm91dD0iIgogICAgICAgICAgICB4bWxuczp4bXA9Imh0dHA6Ly9ucy5hZG9iZS5jb20veGFwLzEuMC8iCiAgICAgICAgICAgIHhtbG5zOmRjPSJodHRwOi8vcHVybC5vcmcvZGMvZWxlbWVudHMvMS4xLyIKICAgICAgICAgICAgeG1sbnM6cGhvdG9zaG9wPSJodHRwOi8vbnMuYWRvYmUuY29tL3Bob3Rvc2hvcC8xLjAvIgogICAgICAgICAgICB4bWxuczp4bXBNTT0iaHR0cDovL25zLmFkb2JlLmNvbS94YXAvMS4wL21tLyIKICAgICAgICAgICAgeG1sbnM6c3RFdnQ9Imh0dHA6Ly9ucy5hZG9iZS5jb20veGFwLzEuMC9zVHlwZS9SZXNvdXJjZUV2ZW50IyIKICAgICAgICAgICAgeG1sbnM6dGlmZj0iaHR0cDovL25zLmFkb2JlLmNvbS90aWZmLzEuMC8iCiAgICAgICAgICAgIHhtbG5zOmV4aWY9Imh0dHA6Ly9ucy5hZG9iZS5jb20vZXhpZi8xLjAvIj4KICAgICAgICAgPHhtcDpDcmVhdGVEYXRlPjIwMjEtMDgtMDFUMTI6MTg6MDMrMDg6MDA8L3htcDpDcmVhdGVEYXRlPgogICAgICAgICA8eG1wOk1vZGlmeURhdGU+MjAyMS0wOC0wMVQxNToyNzoxOCswODowMDwveG1wOk1vZGlmeURhdGU+CiAgICAgICAgIDx4bXA6TWV0YWRhdGFEYXRlPjIwMjEtMDgtMDFUMTU6Mjc6MTgrMDg6MDA8L3htcDpNZXRhZGF0YURhdGU+CiAgICAgICAgIDx4bXA6Q3JlYXRvclRvb2w+QWRvYmUgUGhvdG9zaG9wIENDIDIwMTUgKE1hY2ludG9zaCk8L3htcDpDcmVhdG9yVG9vbD4KICAgICAgICAgPGRjOmZvcm1hdD5pbWFnZS9wbmc8L2RjOmZvcm1hdD4KICAgICAgICAgPHBob3Rvc2hvcDpDb2xvck1vZGU+MzwvcGhvdG9zaG9wOkNvbG9yTW9kZT4KICAgICAgICAgPHBob3Rvc2hvcDpJQ0NQcm9maWxlPkRpc3BsYXkgUDM8L3Bob3Rvc2hvcDpJQ0NQcm9maWxlPgogICAgICAgICA8eG1wTU06SW5zdGFuY2VJRD54bXAuaWlkOjM5NGMwMGQ4LTY4ZGYtNGI0NC05ZTUzLWIxNWU0ZjEwYjQzZDwveG1wTU06SW5zdGFuY2VJRD4KICAgICAgICAgPHhtcE1NOkRvY3VtZW50SUQ+eG1wLmRpZDozOTRjMDBkOC02OGRmLTRiNDQtOWU1My1iMTVlNGYxMGI0M2Q8L3htcE1NOkRvY3VtZW50SUQ+CiAgICAgICAgIDx4bXBNTTpPcmlnaW5hbERvY3VtZW50SUQ+eG1wLmRpZDozOTRjMDBkOC02OGRmLTRiNDQtOWU1My1iMTVlNGYxMGI0M2Q8L3htcE1NOk9yaWdpbmFsRG9jdW1lbnRJRD4KICAgICAgICAgPHhtcE1NOkhpc3Rvcnk+CiAgICAgICAgICAgIDxyZGY6U2VxPgogICAgICAgICAgICAgICA8cmRmOmxpIHJkZjpwYXJzZVR5cGU9IlJlc291cmNlIj4KICAgICAgICAgICAgICAgICAgPHN0RXZ0OmFjdGlvbj5zYXZlZDwvc3RFdnQ6YWN0aW9uPgogICAgICAgICAgICAgICAgICA8c3RFdnQ6aW5zdGFuY2VJRD54bXAuaWlkOjM5NGMwMGQ4LTY4ZGYtNGI0NC05ZTUzLWIxNWU0ZjEwYjQzZDwvc3RFdnQ6aW5zdGFuY2VJRD4KICAgICAgICAgICAgICAgICAgPHN0RXZ0OndoZW4+MjAyMS0wOC0wMVQxNToyNzoxOCswODowMDwvc3RFdnQ6d2hlbj4KICAgICAgICAgICAgICAgICAgPHN0RXZ0OnNvZnR3YXJlQWdlbnQ+QWRvYmUgUGhvdG9zaG9wIENDIDIwMTUgKE1hY2ludG9zaCk8L3N0RXZ0OnNvZnR3YXJlQWdlbnQ+CiAgICAgICAgICAgICAgICAgIDxzdEV2dDpjaGFuZ2VkPi88L3N0RXZ0OmNoYW5nZWQ+CiAgICAgICAgICAgICAgIDwvcmRmOmxpPgogICAgICAgICAgICA8L3JkZjpTZXE+CiAgICAgICAgIDwveG1wTU06SGlzdG9yeT4KICAgICAgICAgPHRpZmY6UGhvdG9tZXRyaWNJbnRlcnByZXRhdGlvbj4yPC90aWZmOlBob3RvbWV0cmljSW50ZXJwcmV0YXRpb24+CiAgICAgICAgIDx0aWZmOk9yaWVudGF0aW9uPjE8L3RpZmY6T3JpZW50YXRpb24+CiAgICAgICAgIDx0aWZmOlhSZXNvbHV0aW9uPjEzMjAwMDAvMTAwMDA8L3RpZmY6WFJlc29sdXRpb24+CiAgICAgICAgIDx0aWZmOllSZXNvbHV0aW9uPjEzMjAwMDAvMTAwMDA8L3RpZmY6WVJlc29sdXRpb24+CiAgICAgICAgIDx0aWZmOlJlc29sdXRpb25Vbml0PjI8L3RpZmY6UmVzb2x1dGlvblVuaXQ+CiAgICAgICAgIDxleGlmOkNvbG9yU3BhY2U+NjU1MzU8L2V4aWY6Q29sb3JTcGFjZT4KICAgICAgICAgPGV4aWY6UGl4ZWxYRGltZW5zaW9uPjY4NzwvZXhpZjpQaXhlbFhEaW1lbnNpb24+CiAgICAgICAgIDxleGlmOlBpeGVsWURpbWVuc2lvbj4xNTM2PC9leGlmOlBpeGVsWURpbWVuc2lvbj4KICAgICAgPC9yZGY6RGVzY3JpcHRpb24+CiAgIDwvcmRmOlJERj4KPC94OnhtcG1ldGE+CiAgICAgICAgICAgICAgICAgICAgICAgICAgICAgICAgICAgICAgICAgICAgICAgICAgICAgICAgICAgICAgICAgICAgICAgICAgICAgICAgICAgICAgICAgICAgICAgICAgICAKICAgICAgICAgICAgICAgICAgICAgICAgICAgICAgICAgICAgICAgICAgICAgICAgICAgICAgICAgICAgICAgICAgICAgICAgICAgICAgICAgICAgICAgICAgICAgICAgICAgIAogICAgICAgICAgICAgICAgICAgICAgICAgICAgICAgICAgICAgICAgICAgICAgICAgICAgICAgICAgICAgICAgICAgICAgICAgICAgICAgICAgICAgICAgICAgICAgICAgICAgCiAgICAgICAgICAgICAgICAgICAgICAgICAgICAgICAgICAgICAgICAgICAgICAgICAgICAgICAgICAgICAgICAgICAgICAgICAgICAgICAgICAgICAgICAgICAgICAgICAgICAKICAgICAgICAgICAgICAgICAgICAgICAgICAgICAgICAgICAgICAgICAgICAgICAgICAgICAgICAgICAgICAgICAgICAgICAgICAgICAgICAgICAgICAgICAgICAgICAgICAgIAogICAgICAgICAgICAgICAgICAgICAgICAgICAgICAgICAgICAgICAgICAgICAgICAgICAgICAgICAgICAgICAgICAgICAgICAgICAgICAgICAgICAgICAgICAgICAgICAgICAgCiAgICAgICAgICAgICAgICAgICAgICAgICAgICAgICAgICAgICAgICAgICAgICAgICAgICAgICAgICAgICAgICAgICAgICAgICAgICAgICAgICAgICAgICAgICAgICAgICAgICAKICAgICAgICAgICAgICAgICAgICAgICAgICAgICAgICAgICAgICAgICAgICAgICAgICAgICAgICAgICAgICAgICAgICAgICAgICAgICAgICAgICAgICAgICAgICAgICAgICAgIAogICAgICAgICAgICAgICAgICAgICAgICAgICAgICAgICAgICAgICAgICAgICAgICAgICAgICAgICAgICAgICAgICAgICAgICAgICAgICAgICAgICAgICAgICAgICAgICAgICAgCiAgICAgICAgICAgICAgICAgICAgICAgICAgICAgICAgICAgICAgICAgICAgICAgICAgICAgICAgICAgICAgICAgICAgICAgICAgICAgICAgICAgICAgICAgICAgICAgICAgICAKICAgICAgICAgICAgICAgICAgICAgICAgICAgICAgICAgICAgICAgICAgICAgICAgICAgICAgICAgICAgICAgICAgICAgICAgICAgICAgICAgICAgICAgICAgICAgICAgICAgIAogICAgICAgICAgICAgICAgICAgICAgICAgICAgICAgICAgICAgICAgICAgICAgICAgICAgICAgICAgICAgICAgICAgICAgICAgICAgICAgICAgICAgICAgICAgICAgICAgICAgCiAgICAgICAgICAgICAgICAgICAgICAgICAgICAgICAgICAgICAgICAgICAgICAgICAgICAgICAgICAgICAgICAgICAgICAgICAgICAgICAgICAgICAgICAgICAgICAgICAgICAKICAgICAgICAgICAgICAgICAgICAgICAgICAgICAgICAgICAgICAgICAgICAgICAgICAgICAgICAgICAgICAgICAgICAgICAgICAgICAgICAgICAgICAgICAgICAgICAgICAgIAogICAgICAgICAgICAgICAgICAgICAgICAgICAgICAgICAgICAgICAgICAgICAgICAgICAgICAgICAgICAgICAgICAgICAgICAgICAgICAgICAgICAgICAgICAgICAgICAgICAgCiAgICAgICAgICAgICAgICAgICAgICAgICAgICAgICAgICAgICAgICAgICAgICAgICAgICAgICAgICAgICAgICAgICAgICAgICAgICAgICAgICAgICAgICAgICAgICAgICAgICAKICAgICAgICAgICAgICAgICAgICAgICAgICAgICAgICAgICAgICAgICAgICAgICAgICAgICAgICAgICAgICAgICAgICAgICAgICAgICAgICAgICAgICAgICAgICAgICAgICAgIAogICAgICAgICAgICAgICAgICAgICAgICAgICAgICAgICAgICAgICAgICAgICAgICAgICAgICAgICAgICAgICAgICAgICAgICAgICAgICAgICAgICAgICAgICAgICAgICAgICAgCiAgICAgICAgICAgICAgICAgICAgICAgICAgICAgICAgICAgICAgICAgICAgICAgICAgICAgICAgICAgICAgICAgICAgICAgICAgICAgICAgICAgICAgICAgICAgICAgICAgICAKICAgICAgICAgICAgICAgICAgICAgICAgICAgICAgICAgICAgICAgICAgICAgICAgICAgICAgICAgICAgICAgICAgICAgICAgICAgICAgICAgICAgICAgICAgICAgICAgICAgIAogICAgICAgICAgICAgICAgICAgICAgICAgICAgICAgICAgICAgICAgICAgICAgICAgICAgICAgICAgICAgICAgICAgICAgICAgICAgICAgICAgICAgICAgICAgICAgICAgICAgCiAgICAgICAgICAgICAgICAgICAgICAgICAgICAgICAgICAgICAgICAgICAgICAgICAgICAgICAgICAgICAgICAgICAgICAgICAgICAgICAgICAgICAgICAgICAgICAgICAgICAKICAgICAgICAgICAgICAgICAgICAgICAgICAgICAgICAgICAgICAgICAgICAgICAgICAgICAgICAgICAgICAgICAgICAgICAgICAgICAgICAgICAgICAgICAgICAgICAgICAgIAogICAgICAgICAgICAgICAgICAgICAgICAgICAgICAgICAgICAgICAgICAgICAgICAgICAgICAgICAgICAgICAgICAgICAgICAgICAgICAgICAgICAgICAgICAgICAgICAgICAgCiAgICAgICAgICAgICAgICAgICAgICAgICAgICAgICAgICAgICAgICAgICAgICAgICAgICAgICAgICAgICAgICAgICAgICAgICAgICAgICAgICAgICAgICAgICAgICAgICAgICAKICAgICAgICAgICAgICAgICAgICAgICAgICAgICAgICAgICAgICAgICAgICAgICAgICAgICAgICAgICAgICAgICAgICAgICAgICAgICAgICAgICAgICAgICAgICAgICAgICAgIAogICAgICAgICAgICAgICAgICAgICAgICAgICAgICAgICAgICAgICAgICAgICAgICAgICAgICAgICAgICAgICAgICAgICAgICAgICAgICAgICAgICAgICAgICAgICAgICAgICAgCiAgICAgICAgICAgICAgICAgICAgICAgICAgICAgICAgICAgICAgICAgICAgICAgICAgICAgICAgICAgICAgICAgICAgICAgICAgICAgICAgICAgICAgICAgICAgICAgICAgICAKICAgICAgICAgICAgICAgICAgICAgICAgICAgICAgICAgICAgICAgICAgICAgICAgICAgICAgICAgICAgICAgICAgICAgICAgICAgICAgICAgICAgICAgICAgICAgICAgICAgIAogICAgICAgICAgICAgICAgICAgICAgICAgICAgICAgICAgICAgICAgICAgICAgICAgICAgICAgICAgICAgICAgICAgICAgICAgICAgICAgICAgICAgICAgICAgICAgICAgICAgCiAgICAgICAgICAgICAgICAgICAgICAgICAgICAgICAgICAgICAgICAgICAgICAgICAgICAgICAgICAgICAgICAgICAgICAgICAgICAgICAgICAgICAgICAgICAgICAgICAgICAKICAgICAgICAgICAgICAgICAgICAgICAgICAgICAgICAgICAgICAgICAgICAgICAgICAgICAgICAgICAgICAgICAgICAgICAgICAgICAgICAgICAgICAgICAgICAgICAgICAgIAogICAgICAgICAgICAgICAgICAgICAgICAgICAgICAgICAgICAgICAgICAgICAgICAgICAgICAgICAgICAgICAgICAgICAgICAgICAgICAgICAgICAgICAgICAgICAgICAgICAgCiAgICAgICAgICAgICAgICAgICAgICAgICAgICAgICAgICAgICAgICAgICAgICAgICAgICAgICAgICAgICAgICAgICAgICAgICAgICAgICAgICAgICAgICAgICAgICAgICAgICAKICAgICAgICAgICAgICAgICAgICAgICAgICAgICAgICAgICAgICAgICAgICAgICAgICAgICAgICAgICAgICAgICAgICAgICAgICAgICAgICAgICAgICAgICAgICAgICAgICAgIAogICAgICAgICAgICAgICAgICAgICAgICAgICAgICAgICAgICAgICAgICAgICAgICAgICAgICAgICAgICAgICAgICAgICAgICAgICAgICAgICAgICAgICAgICAgICAgICAgICAgCiAgICAgICAgICAgICAgICAgICAgICAgICAgICAgICAgICAgICAgICAgICAgICAgICAgICAgICAgICAgICAgICAgICAgICAgICAgICAgICAgICAgICAgICAgICAgICAgICAgICAKICAgICAgICAgICAgICAgICAgICAgICAgICAgICAgICAgICAgICAgICAgICAgICAgICAgICAgICAgICAgICAgICAgICAgICAgICAgICAgICAgICAgICAgICAgICAgICAgICAgIAogICAgICAgICAgICAgICAgICAgICAgICAgICAgICAgICAgICAgICAgICAgICAgICAgICAgICAgICAgICAgICAgICAgICAgICAgICAgICAgICAgICAgICAgICAgICAgICAgICAgCiAgICAgICAgICAgICAgICAgICAgICAgICAgICAgICAgICAgICAgICAgICAgICAgICAgICAgICAgICAgICAgICAgICAgICAgICAgICAgICAgICAgICAgICAgICAgICAgICAgICAKICAgICAgICAgICAgICAgICAgICAgICAgICAgICAgICAgICAgICAgICAgICAgICAgICAgICAgICAgICAgICAgICAgICAgICAgICAgICAgICAgICAgICAgICAgICAgICAgICAgIAogICAgICAgICAgICAgICAgICAgICAgICAgICAgICAgICAgICAgICAgICAgICAgICAgICAgICAgICAgICAgICAgICAgICAgICAgICAgICAgICAgICAgICAgICAgICAgICAgICAgCiAgICAgICAgICAgICAgICAgICAgICAgICAgICAgICAgICAgICAgICAgICAgICAgICAgICAgICAgICAgICAgICAgICAgICAgICAgICAgICAgICAgICAgICAgICAgICAgICAgICAKICAgICAgICAgICAgICAgICAgICAgICAgICAgICAgICAgICAgICAgICAgICAgICAgICAgICAgICAgICAgICAgICAgICAgICAgICAgICAgICAgICAgICAgICAgICAgICAgICAgIAogICAgICAgICAgICAgICAgICAgICAgICAgICAgICAgICAgICAgICAgICAgICAgICAgICAgICAgICAgICAgICAgICAgICAgICAgICAgICAgICAgICAgICAgICAgICAgICAgICAgCiAgICAgICAgICAgICAgICAgICAgICAgICAgICAgICAgICAgICAgICAgICAgICAgICAgICAgICAgICAgICAgICAgICAgICAgICAgICAgICAgICAgICAgICAgICAgICAgICAgICAKICAgICAgICAgICAgICAgICAgICAgICAgICAgICAgICAgICAgICAgICAgICAgICAgICAgICAgICAgICAgICAgICAgICAgICAgICAgICAgICAgICAgICAgICAgICAgICAgICAgIAogICAgICAgICAgICAgICAgICAgICAgICAgICAgICAgICAgICAgICAgICAgICAgICAgICAgICAgICAgICAgICAgICAgICAgICAgICAgICAgICAgICAgICAgICAgICAgICAgICAgCiAgICAgICAgICAgICAgICAgICAgICAgICAgICAgICAgICAgICAgICAgICAgICAgICAgICAgICAgICAgICAgICAgICAgICAgICAgICAgICAgICAgICAgICAgICAgICAgICAgICAKICAgICAgICAgICAgICAgICAgICAgICAgICAgICAgICAgICAgICAgICAgICAgICAgICAgICAgICAgICAgICAgICAgICAgICAgICAgICAgICAgICAgICAgICAgICAgICAgICAgIAogICAgICAgICAgICAgICAgICAgICAgICAgICAgICAgICAgICAgICAgICAgICAgICAgICAgICAgICAgICAgICAgICAgICAgICAgICAgICAgICAgICAgICAgICAgICAgICAgICAgCiAgICAgICAgICAgICAgICAgICAgICAgICAgICAgICAgICAgICAgICAgICAgICAgICAgICAgICAgICAgICAgICAgICAgICAgICAgICAgICAgICAgICAgICAgICAgICAgICAgICAKICAgICAgICAgICAgICAgICAgICAgICAgICAgICAgICAgICAgICAgICAgICAgICAgICAgICAgICAgICAgICAgICAgICAgICAgICAgICAgICAgICAgICAgICAgICAgICAgICAgIAogICAgICAgICAgICAgICAgICAgICAgICAgICAgICAgICAgICAgICAgICAgICAgICAgICAgICAgICAgICAgICAgICAgICAgICAgICAgICAgICAgICAgICAgICAgICAgICAgICAgCiAgICAgICAgICAgICAgICAgICAgICAgICAgICAgICAgICAgICAgICAgICAgICAgICAgICAgICAgICAgICAgICAgICAgICAgICAgICAgICAgICAgICAgICAgICAgICAgICAgICAKICAgICAgICAgICAgICAgICAgICAgICAgICAgICAgICAgICAgICAgICAgICAgICAgICAgICAgICAgICAgICAgICAgICAgICAgICAgICAgICAgICAgICAgICAgICAgICAgICAgIAogICAgICAgICAgICAgICAgICAgICAgICAgICAgICAgICAgICAgICAgICAgICAgICAgICAgICAgICAgICAgICAgICAgICAgICAgICAgICAgICAgICAgICAgICAgICAgICAgICAgCiAgICAgICAgICAgICAgICAgICAgICAgICAgICAgICAgICAgICAgICAgICAgICAgICAgICAgICAgICAgICAgICAgICAgICAgICAgICAgICAgICAgICAgICAgICAgICAgICAgICAKICAgICAgICAgICAgICAgICAgICAgICAgICAgICAgICAgICAgICAgICAgICAgICAgICAgICAgICAgICAgICAgICAgICAgICAgICAgICAgICAgICAgICAgICAgICAgICAgICAgIAogICAgICAgICAgICAgICAgICAgICAgICAgICAgICAgICAgICAgICAgICAgICAgICAgICAgICAgICAgICAgICAgICAgICAgICAgICAgICAgICAgICAgICAgICAgICAgICAgICAgCiAgICAgICAgICAgICAgICAgICAgICAgICAgICAgICAgICAgICAgICAgICAgICAgICAgICAgICAgICAgICAgICAgICAgICAgICAgICAgICAgICAgICAgICAgICAgICAgICAgICAKICAgICAgICAgICAgICAgICAgICAgICAgICAgICAgICAgICAgICAgICAgICAgICAgICAgICAgICAgICAgICAgICAgICAgICAgICAgICAgICAgICAgICAgICAgICAgICAgICAgIAogICAgICAgICAgICAgICAgICAgICAgICAgICAgICAgICAgICAgICAgICAgICAgICAgICAgICAgICAgICAgICAgICAgICAgICAgICAgICAgICAgICAgICAgICAgICAgICAgICAgCiAgICAgICAgICAgICAgICAgICAgICAgICAgICAgICAgICAgICAgICAgICAgICAgICAgICAgICAgICAgICAgICAgICAgICAgICAgICAgICAgICAgICAgICAgICAgICAgICAgICAKICAgICAgICAgICAgICAgICAgICAgICAgICAgICAgICAgICAgICAgICAgICAgICAgICAgICAgICAgICAgICAgICAgICAgICAgICAgICAgICAgICAgICAgICAgICAgICAgICAgIAogICAgICAgICAgICAgICAgICAgICAgICAgICAgICAgICAgICAgICAgICAgICAgICAgICAgICAgICAgICAgICAgICAgICAgICAgICAgICAgICAgICAgICAgICAgICAgICAgICAgCiAgICAgICAgICAgICAgICAgICAgICAgICAgICAgICAgICAgICAgICAgICAgICAgICAgICAgICAgICAgICAgICAgICAgICAgICAgICAgICAgICAgICAgICAgICAgICAgICAgICAKICAgICAgICAgICAgICAgICAgICAgICAgICAgICAgICAgICAgICAgICAgICAgICAgICAgICAgICAgICAgICAgICAgICAgICAgICAgICAgICAgICAgICAgICAgICAgICAgICAgIAogICAgICAgICAgICAgICAgICAgICAgICAgICAgICAgICAgICAgICAgICAgICAgICAgICAgICAgICAgICAgICAgICAgICAgICAgICAgICAgICAgICAgICAgICAgICAgICAgICAgCiAgICAgICAgICAgICAgICAgICAgICAgICAgICAgICAgICAgICAgICAgICAgICAgICAgICAgICAgICAgICAgICAgICAgICAgICAgICAgICAgICAgICAgICAgICAgICAgICAgICAKICAgICAgICAgICAgICAgICAgICAgICAgICAgICAgICAgICAgICAgICAgICAgICAgICAgICAgICAgICAgICAgICAgICAgICAgICAgICAgICAgICAgICAgICAgICAgICAgICAgIAogICAgICAgICAgICAgICAgICAgICAgICAgICAgICAgICAgICAgICAgICAgICAgICAgICAgICAgICAgICAgICAgICAgICAgICAgICAgICAgICAgICAgICAgICAgICAgICAgICAgCiAgICAgICAgICAgICAgICAgICAgICAgICAgICAgICAgICAgICAgICAgICAgICAgICAgICAgICAgICAgICAgICAgICAgICAgICAgICAgICAgICAgICAgICAgICAgICAgICAgICAKICAgICAgICAgICAgICAgICAgICAgICAgICAgICAgICAgICAgICAgICAgICAgICAgICAgICAgICAgICAgICAgICAgICAgICAgICAgICAgICAgICAgICAgICAgICAgICAgICAgIAogICAgICAgICAgICAgICAgICAgICAgICAgICAgICAgICAgICAgICAgICAgICAgICAgICAgICAgICAgICAgICAgICAgICAgICAgICAgICAgICAgICAgICAgICAgICAgICAgICAgCiAgICAgICAgICAgICAgICAgICAgICAgICAgICAgICAgICAgICAgICAgICAgICAgICAgICAgICAgICAgICAgICAgICAgICAgICAgICAgICAgICAgICAgICAgICAgICAgICAgICAKICAgICAgICAgICAgICAgICAgICAgICAgICAgICAgICAgICAgICAgICAgICAgICAgICAgICAgICAgICAgICAgICAgICAgICAgICAgICAgICAgICAgICAgICAgICAgICAgICAgIAogICAgICAgICAgICAgICAgICAgICAgICAgICAgICAgICAgICAgICAgICAgICAgICAgICAgICAgICAgICAgICAgICAgICAgICAgICAgICAgICAgICAgICAgICAgICAgICAgICAgCiAgICAgICAgICAgICAgICAgICAgICAgICAgICAgICAgICAgICAgICAgICAgICAgICAgICAgICAgICAgICAgICAgICAgICAgICAgICAgICAgICAgICAgICAgICAgICAgICAgICAKICAgICAgICAgICAgICAgICAgICAgICAgICAgICAgICAgICAgICAgICAgICAgICAgICAgICAgICAgICAgICAgICAgICAgICAgICAgICAgICAgICAgICAgICAgICAgICAgICAgIAogICAgICAgICAgICAgICAgICAgICAgICAgICAgICAgICAgICAgICAgICAgICAgICAgICAgICAgICAgICAgICAgICAgICAgICAgICAgICAgICAgICAgICAgICAgICAgICAgICAgCiAgICAgICAgICAgICAgICAgICAgICAgICAgICAgICAgICAgICAgICAgICAgICAgICAgICAgICAgICAgICAgICAgICAgICAgICAgICAgICAgICAgICAgICAgICAgICAgICAgICAKICAgICAgICAgICAgICAgICAgICAgICAgICAgICAgICAgICAgICAgICAgICAgICAgICAgICAgICAgICAgICAgICAgICAgICAgICAgICAgICAgICAgICAgICAgICAgICAgICAgIAogICAgICAgICAgICAgICAgICAgICAgICAgICAgICAgICAgICAgICAgICAgICAgICAgICAgICAgICAgICAgICAgICAgICAgICAgICAgICAgICAgICAgICAgICAgICAgICAgICAgCiAgICAgICAgICAgICAgICAgICAgICAgICAgICAgICAgICAgICAgICAgICAgICAgICAgICAgICAgICAgICAgICAgICAgICAgICAgICAgICAgICAgICAgICAgICAgICAgICAgICAKICAgICAgICAgICAgICAgICAgICAgICAgICAgICAgICAgICAgICAgICAgICAgICAgICAgICAgICAgICAgICAgICAgICAgICAgICAgICAgICAgICAgICAgICAgICAgICAgICAgIAogICAgICAgICAgICAgICAgICAgICAgICAgICAgICAgICAgICAgICAgICAgICAgICAgICAgICAgICAgICAgICAgICAgICAgICAgICAgICAgICAgICAgICAgICAgICAgICAgICAgCiAgICAgICAgICAgICAgICAgICAgICAgICAgICAgICAgICAgICAgICAgICAgICAgICAgICAgICAgICAgICAgICAgICAgICAgICAgICAgICAgICAgICAgICAgICAgICAgICAgICAKICAgICAgICAgICAgICAgICAgICAgICAgICAgICAgICAgICAgICAgICAgICAgICAgICAgICAgICAgICAgICAgICAgICAgICAgICAgICAgICAgICAgICAgICAgICAgICAgICAgIAogICAgICAgICAgICAgICAgICAgICAgICAgICAgICAgICAgICAgICAgICAgICAgICAgICAgICAgICAgICAgICAgICAgICAgICAgICAgICAgICAgICAgICAgICAgICAgICAgICAgCiAgICAgICAgICAgICAgICAgICAgICAgICAgICAgICAgICAgICAgICAgICAgICAgICAgICAgICAgICAgICAgICAgICAgICAgICAgICAgICAgICAgICAgICAgICAgICAgICAgICAKICAgICAgICAgICAgICAgICAgICAgICAgICAgICAgICAgICAgICAgICAgICAgICAgICAgICAgICAgICAgICAgICAgICAgICAgICAgICAgICAgICAgICAgICAgICAgICAgICAgIAogICAgICAgICAgICAgICAgICAgICAgICAgICAgICAgICAgICAgICAgICAgICAgICAgICAgICAgICAgICAgICAgICAgICAgICAgICAgICAgICAgICAgICAgICAgICAgICAgICAgCiAgICAgICAgICAgICAgICAgICAgICAgICAgICAgICAgICAgICAgICAgICAgICAgICAgICAgICAgICAgICAgICAgICAgICAgICAgICAgICAgICAgICAgICAgICAgICAgICAgICAKICAgICAgICAgICAgICAgICAgICAgICAgICAgICAgICAgICAgICAgICAgICAgICAgICAgICAgICAgICAgICAgICAgICAgICAgICAgICAgICAgICAgICAgICAgICAgICAgICAgIAogICAgICAgICAgICAgICAgICAgICAgICAgICAgICAgICAgICAgICAgICAgICAgICAgICAgICAgICAgICAgICAgICAgICAgICAgICAgICAgICAgICAgICAgICAgICAgICAgICAgCiAgICAgICAgICAgICAgICAgICAgICAgICAgICAgICAgICAgICAgICAgICAgICAgICAgICAgICAgICAgICAgICAgICAgICAgICAgICAgICAgICAgICAgICAgICAgICAgICAgICAKICAgICAgICAgICAgICAgICAgICAgICAgICAgICAgICAgICAgICAgICAgICAgICAgICAgICAgICAgICAgICAgICAgICAgICAgICAgICAgICAgICAgICAgICAgICAgICAgICAgIAogICAgICAgICAgICAgICAgICAgICAgICAgICAgICAgICAgICAgICAgICAgICAgICAgICAgICAgICAgICAgICAgICAgICAgICAgICAgICAgICAgICAgICAgICAgICAgICAgICAgCiAgICAgICAgICAgICAgICAgICAgICAgICAgICAgICAgICAgICAgICAgICAgICAgICAgICAgICAgICAgICAgICAgICAgICAgICAgICAgICAgICAgICAgICAgICAgICAgICAgICAKICAgICAgICAgICAgICAgICAgICAgICAgICAgICAgICAgICAgICAgICAgICAgICAgICAgICAgICAgICAgICAgICAgICAgICAgICAgICAgICAgICAgICAgICAgICAgICAgICAgIAogICAgICAgICAgICAgICAgICAgICAgICAgICAgICAgICAgICAgICAgICAgICAgICAgICAgICAgICAgICAgICAgICAgICAgICAgICAgICAgICAgICAgICAgICAgICAgICAgICAgCiAgICAgICAgICAgICAgICAgICAgICAgICAgICAgICAgICAgICAgICAgICAgICAgICAgICAgICAgICAgICAgICAgICAgICAgICAgICAgICAgICAgICAgICAgICAgICAgICAgICAKICAgICAgICAgICAgICAgICAgICAgICAgICAgICAgICAgICAgICAgICAgICAgICAgICAgICAgICAgICAgICAgICAgICAgICAgICAgICAgICAgICAgICAgICAgICAgICAgICAgIAogICAgICAgICAgICAgICAgICAgICAgICAgICAgICAgICAgICAgICAgICAgICAgICAgICAgICAgICAgICAgICAgICAgICAgICAgICAgICAgICAgICAgICAgICAgICAgICAgICAgCiAgICAgICAgICAgICAgICAgICAgICAgICAgICAgICAgICAgICAgICAgICAgICAgICAgICAgICAgICAgICAgICAgICAgICAgICAgICAgICAgICAgICAgICAgICAgICAgICAgICAKICAgICAgICAgICAgICAgICAgICAgICAgICAgICAgICAgICAgICAgICAgICAgICAgICAgICAgICAgICAgICAgICAgICAgICAgICAgICAgICAgICAgICAgICAgICAgICAgICAgIAogICAgICAgICAgICAgICAgICAgICAgICAgICAgICAgICAgICAgICAgICAgICAgICAgICAgICAgICAgICAgICAgICAgICAgICAgICAgICAgICAgICAgICAgICAgICAgICAgICAgCiAgICAgICAgICAgICAgICAgICAgICAgICAgICAgICAgICAgICAgICAgICAgICAgICAgICAgICAgICAgICAgICAgICAgICAgICAgICAgICAgICAgICAgICAgICAgICAgICAgICAKICAgICAgICAgICAgICAgICAgICAgICAgICAgICAgICAgICAgICAgICAgICAgICAgICAgICAgICAgICAgICAgICAgICAgICAgICAgICAgICAgICAgICAgICAgICAgICAgICAgIAogICAgICAgICAgICAgICAgICAgICAgICAgICAgICAgICAgICAgICAgICAgICAgICAgICAgICAgICAgICAgICAgICAgICAgICAgICAgICAgICAgICAgICAgICAgICAgICAgICAgCiAgICAgICAgICAgICAgICAgICAgICAgICAgICAgICAgICAgICAgICAgICAgICAgICAgICAgICAgICAgICAgICAgICAgICAgICAgICAgICAgICAgICAgICAgICAgICAgICAgICAKICAgICAgICAgICAgICAgICAgICAgICAgICAgICAgICAgICAgICAgICAgICAgICAgICAgICAgICAgICAgICAgICAgICAgICAgICAgICAgICAgICAgICAgICAgICAgICAgICAgIAogICAgICAgICAgICAgICAgICAgICAgICAgICAgICAgICAgICAgICAgICAgICAgICAgICAgICAgICAgICAgICAgICAgICAgICAgICAgICAgICAgICAgICAgICAgICAgICAgICAgCiAgICAgICAgICAgICAgICAgICAgICAgICAgICAgICAgICAgICAgICAgICAgICAgICAgICAgICAgICAgICAgICAgICAgICAgICAgICAgICAgICAgICAgICAgICAgICAgICAgICAKICAgICAgICAgICAgICAgICAgICAgICAgICAgICAgICAgICAgICAgICAgICAgICAgICAgICAgICAgICAgICAgICAgICAgICAgICAgICAgICAgICAgICAgICAgICAgICAgICAgIAogICAgICAgICAgICAgICAgICAgICAgICAgICAgICAgICAgICAgICAgICAgICAgICAgICAgICAgICAgICAgICAgICAgICAgICAgICAgICAgICAgICAgICAgICAgICAgICAgICAgCiAgICAgICAgICAgICAgICAgICAgICAgICAgICAgICAgICAgICAgICAgICAgICAgICAgICAgICAgICAgICAgICAgICAgICAgICAgICAgICAgICAgICAgICAgICAgICAgICAgICAKICAgICAgICAgICAgICAgICAgICAgICAgICAgICAgICAgICAgICAgICAgICAgICAgICAgICAgICAgICAgICAgICAgICAgICAgICAgICAgICAgICAgICAgICAgICAgICAgICAgIAogICAgICAgICAgICAgICAgICAgICAgICAgICAgCjw/eHBhY2tldCBlbmQ9InciPz6otMdUAAAAIGNIUk0AAG2YAABzjwABCDUAAH5qAABkyQABCbEAADFxAAATvBL/D9cAAFfuSURBVHja7N1pcF33fdj937n34mLhBpIiQZHgKoqkdlGStVIStVqy3FixbMVpnaRJ0xft8zRp3/hJZzqTOtPp1E87fjLj6STOdJqJPXHqVbIsWRa1S5Rk7aYoUSTFTdz3BSRBAHc5zwvwXgMgSIIgQOECn88MRySE5eLc7Xv+53/+J0nTNAAAoBZkbAIAAMQrAACIVwAAxCsAAIhXAAAQrwAAiFcAABCvAAAgXgEAEK8AACBeAQBAvAIAIF4BAEC8AgCAeAUAQLwCAIB4BQAA8QoAgHgFAADxCgAA4hUAAPEKAADiFQAAxCsAAOIVAADEKwAAiFcAAMQrAACIVwAAxCsAAIhXAAAQrwAAiFcAABCvAAAgXgEAEK8AACBeAQBAvAIAIF4BAEC8AgCAeAUAQLwCAIB4BQAA8QoAgHgFAADxCgAA4hUAAPEKAADiFQAAxCsAAOIVAAAulNy5fHKSJBERkabp/xMRD9h8AAA151dJknyr8o80TUdvvPawOCKWu+8BAGrO5lq+8aYNAAAgXgEAQLwCACBeAQBAvAIAgHgFAEC8AgCAeAUAAPEKAIB4BQAA8QoAAOIVAADxCgAAI0LOJgAABqOzszPK5XI0NDREkiQREVEqlaKjoyOSJIn6+vrIZrMD+l7t7e3R0NAQmczpx9VKpVJ0dXVFPp+vft9SqRSdnZ1RKpUin89HPp+v3pYzOXr0aGSz2Whqahr0718oFOLo0aNRKpWqH0uSJPL5fIwfP756OwZyexCvA5amafUJmM1mo66u7qxf09XVFe3t7VEsFqNcLkcul4umpqaor68/rwdosViM48ePR0dHR2Sz2er3zefz5/x9urq6olAoRD6f7/WiAjDWFIvFaGtri8bGxmhsbBxz73F9/wzkfW6g4frmm29GuVyOm266KRoaGuLIkSOxadOm2LlzZ2QymZg1a1YsWLAgJkyYcPrbGBG7du6M9957L+68884zfu7mzZvjk08+iaVLl0ZLS0ucOHEitm7dGps2bYrjx4/H5MmTY8mSJTFr1qwzvu/t27cvnnvuuZg7d27ceuutg94GO3fujBdffDEOHTpU/Xm5XC5aW1tj+fLl0dzcXL0fvA+L1yF7QTt48GDs2rUrdu/eHQsXLoxLLrnkjJ+/devW2LhxY+zYsSM6OjqiVCpFY2NjtLS0xGWXXRZz584d8F5mzxeXgwcPxvr162PTpk1x+PDhyGaz0dDQEHPmzIlLLrkkWltbz/p9Ozo6YseOHbFz587Yt29fHD58OBYtWhQ33HBDNDQ0eLQDY9L27dvj+eefj5kzZ8YNN9wQ06ZNG7ZQbGtri2PHjkVHR0d0dXVVByKSJIlyuRwREU1NTTF58uRhe13u6uqKgwcPxuHDh6O9vT0KhUIUCoUoFosREdHc3Bz19fUxZcqUmDJlyqBjdvXq1fHTn/40pk2bFtdee20UCoV46aWXYu3atXHxxRdHuVyO3/zmN3HjjTfGvffee9pttm3btnjyySdj7dq1sXTp0tPG68GDB+Opp56KtevWxdSpU2Pq1Kmxdu3aePnll6Ouri7GjRsXa9asiQ0bNsQf/MEfxLhx4/r9Pnv27Imnn346Xn311bjjjjvOOV4LhUK0tbVFqVSKjRs3xocffhgHDx6sjhgnSRKHDh2K+fPnVweRxo8ff85tgHitKpfLcfz48dizZ09s3bo1tmzZEtu3b49jx47FuHHjzhiv7733Xrz00kuxbdu2aG9vj4iITCZTHbFds2ZN3HHHHXHDDTcM+EFaLpere26rV6+Ow4cPR6lUqj4JVq1aFbNnz44HH3wwlixZcto9t4MHD8Ybb7wRa9asiV27dsWxY8eqo8NXXXWVeAXGrI0bN8Ybb7wREydOjP3798ftt98es2fPHvKYOHLkSDz//Auxffu2OH78eHR2dkYul6sexi6Xy5GmaTQ1NcXNN998Tu8VA/35mzdvjk2bNseuXd2DGJWjipWfXwnY+vr6mD59elxyySVxySWXxKxZs04be/1pa2uL1157rXqkr1wux8GDB2P16tVxySWXxL333hvlcjleffXV6OjoiHK5fMp0gHK5HOvWrYvnn38+Pv7440jTtBr4fXV2dsbKlStj165dUS6VolgsRkdHR3z88cdx4sSJuP/+++Piiy+ONWvWxJo1a6K9vb3f32f//v3x/PPPx9tvvx3FYjE6OzvPaRu3nzgRq37zm1izZk10dHTEwYMH4/jx49VtXDmau3///lixYkWMGzcumpub46qrropFixZFfX29J6R4PTdtbW2xevXqWLt2XezcuSMOHToUXV1dkSRJZDKZ6pO6Px9//HE88cQTsWfPnmhoaIjrrrsuZs6cGeVyObZs2RJbtmyJDRs2xLFjx2LWrFnR2tp6xr3zNCIySRJHjx6N559/Pt56660ol8uxcOHCmDdvXuTz+di6dWt89NFHsW7dukiSJJqammLu3LmnfL99+/bFY489Fh999FF0dnZGPp+P+fPnx+TJk2Px4sXnPO0AYDQpFAqRyWSqh7kPHDgQd999dyxZsmRIXx937NgR7777buzbt7f6nlJ5f+k58loZoLjyyitj3Lhx531I+dixY/Hhhx/G+++/H5s3b45CoRDNzc3R2toa06ZNi8bGxuoARkdHR7S1tcX+/ftjx44dsXnzlnjrrbdi3rx5sXTp0li8ePFZA6uzszNWrFgREyZMiMWLF8eePXsiTdM4duxYdHV1xZw5c2LKlClRLBbjtttuq4Zd33Bdv359PPXUU7Fx48YolUqRzWZP+z68du3a2LRpU1x33fXxzDO/iiRJoqurKw4cOBBTp06NWbNmRVNTU1x55ZUxZ86cGDd+/CnfY+/evfHcc8/F22+/HV1dXZHL5SKTyUQ5TSMzgO2fpmns3LEjfvn009F25Eh11LrnFIWe92WhUIidO3fGxx9/HPv374+WlpaYPn26J6R4Hbg0Irbv2BHPPPNM7N69OyIiJkyYEHV1dXHixInIZrOn3ePr6uqKF154IXbt2hUNDQ1x4403xv333x8TJkyINE1j9+7d8cQTT8T69etjx44dsW7dujPGa+WBXRl1/eijj6JQKMTll18eDz74YMyaNSsymUwcOXIkkiSJ999/P7Zs2RJr1qyJ2bNn99p7PXHiRDzxxBPxzjvvRJJk4tJLF8Ytt9zS/eQdNy7y9fX29IAxrRKPs2fPjnHjxsXHa9fG4cOH44EHHoilS5cO6jWyEib5fD4uvvji7lG59vbo7Ow+UakSrZWRuErUVF7/K0fZKjG7devWyOfzZ3zv6M+WLVvihRdeiFWrVlUHQG644YaYPXt2TJgwoXrCVOV9ozL62tnZGYcPH44NGzbG6tUfxPvvvx/r1q2Lz33uc3HnnXfGlClTTvszP/nkk9iy5dN49NGvxrPPPhulUqka57lcLurr62Pjxo3xwgsvxJEjR2LGjBnx+7//+9XtXC6XY+PGjfH000/Hxo0bY9asWdHW1hZtbW3V7dXTnj174s0334xrrrkmJk+eHE8++YtI07R6YtiECROiq6srXnzxxdiwYUM0NjbGvffeG0uWLKlu9wMHDsQzzzwTb775ZnR0dFQfE9X7aADxWhld3rN7dyxatCjuvffeaG5u7nWbe97PSZLE5s2bY8WKFbFnz57o7Ow091W8npskIson93YXLlwY11xzTcyePTuef/75+M1vflN9IPdnz549sWHDhojoniu0bNmymD59evUQwbx58+Lqq6+OrVu3RkdHR2zdujWKxWLkcrnqXuqWLVuira0tFi5cGM3NzZEkSRRLpdi8eXMcPHgwGhsbY9GiRTF//vzu25LJxIzGxrj99ttj7dp10dXVFTt27Ihjx47FxIkTq7ftgw8+iPfeey8iIhYsmB+PPvpoXHzxxdU5VgBjydatW2Pfvn1x6aWXVl8rK4ejZ8yYEffdd188//zz8d5778Vjjz0WHR0dccstt5xTwFYGLf7pn/5P5PN18bu/+7sxf/786rSAShD1PIzcM4B6fp80TeODDz6Ixx57LObNmxdf/epXe73Gn05XV1esXr06VqxYETt27Ih58+bFfffdFwsWLIjGxsbIZDLR3t4ee/bsif3791dXBWhsbIxZs2ZFc3NzzJ8/P1pbW+O665bGhx9+GC+99FI8++yzsWnTpvi93/u9fkP6yJEj8frrr8fOnTvj8ccfj507d0ZbW1s8/fTTMXfu3OqZ/y0tLXHbbbfFL3/5y/j0063VUK/McX3qqadiw4YNcfnll8e9994bv/zlL+Po0aP9jtCuXr061q//JA4ePBRJEpHP5+P5F16IJEmirq6uepLztddeG11dXfHGG2/EjTfeWB0sOnz4cDz11FPxxhtvVEfhB7sKQGVkeOLEidHa2hpTp0494+d3dnZGY2NjtLe3C1fxeu7SNI3W2bPjT//0T2PKlCnVQygrV66Mcrl8xgdUmqYxfXpLTJ16UbS2zoqLL76414tSZamNnnvZPQ8hfPDBB/Gzn/0s9u/fH0uXLo0//uM/jsbGxiiVSrF///6IiBg/fnxMmzYtcicnzicnv0dra2s0N0+KXbt2VU/CqrywnThxIl577bUoFArR0NAQDz30UMyePduTAxiTdu7cGU888URs2rQpbr311vj85z8fEyZMiFKpVD1UP3PmzHjooYeiq6sr3nzzzXjllVfi8iuuiOnncBJXkiRx0UUXxTXXXB3PPPNMPPbYY/HII49EuVzudfi750hrz1G5yqhhPp+Pd999N3784x9HqVSKK664YsDzTrdt2xZPP/10fPrpp3HvvffGF7/4xeqST7t27YrXX389Pl67Ng4eOBCFQqEaysViMerr62PmzJlx1VVXxec+97loaWmJO+64IxYtWhT/9E//FB988EEkSRJ//u//fWT7zFNNkiQWLlwYkyZNikKhEPv27YtcLheNjY0xderUaGxsjA0bNsSVV14Zl112Wbz66qvR2Xmg+ntv3749fvjDH8b69etj8eLF8Tu/8zsxderUKBQK1fjva8aMGXHDDddHsVisTlFoqK+PSZMmxbRp02LdunWxd+/eWLJkSezatSveeuut6s5Ie3t7/OIXv4hXX321umNxXtF0cmCocr7L2d5vz/fnMcbjNUmSmDRxYjRPmtRrz7XyRDnTyOvs2bPj//6//68oFArR1NRUDd+egXrw4MHo7OyMJEmiubm5Ogm/XC7H0aNH48SJE9W99cqeW6lUiiNHjnQ/ERsaugO4z22YNGlSNDY2RpIk0d7eXj1RLCJi9+7dsW3btoiIWLx4ccybNy/27NkThw4dimKxGE1NTdHS0lINa4DRbNKkSbFo0aLYvXt3vPjii3HixIn40pe+FJlMpvoa39bWFr/+9a/jww8/jHw+H1deeWWMP4cTlSoaGxvj5ptvjgMHD8bbb70db775VkydOqV7DuXJCDvde0olotra2uLnP/95dHV1xcMPPxw33nTTgOZeRkTMmjUrrr/++jhw4EDs3bs3isViHDt2LF5//fV47rnn4sCBA72mC1SUy+U4duxYfPLJJ7Fp06Z4++23Y/ny5XHDDTfEkSNH4vjx43HRtGnxhS984ZRwjegecbz77rur//7Od74ThUIh7rzzzhg/fnzcdNNN8dxzz8V3vvOdyOXqYs+e3XHjjTdGfX197Ny5M374wx/GJ598Evl8PmbOnBmTJk2qhnXl9vWNvyuvvDKuvPLKiOhe4WDVqlVx6623xpIlS6KhoSF2794d3/ve96K5uTmOnJyLOnny5Ojo6IjHHnusV7gOxeBOuVyOw4cPx/r16886Sr5jx47q+z/iddAB2/cBWPlztq8707pze/furZ552NDQEEuWLKn+v2w2G/Pnz4/LL7889u/fH7feemuvM/8re8T9jf5WXvwqowZ9b2tlYn6pVIrm5uZ46qmn4t133439+/dXz2hdsmRJ3HPPPXHppZcO2dp+ACPRuHHjYvny5TF16tR47rnnYuXKlXHw4MFoamqKXC4X+/bti5/97Gfx9ttvR1NTU9x///1xxx13DGqR+lKpFA0NDTGjpSVyuWycONEeaTq5ev5Ef1MGes6xzGaz1eWrstlsTJ06NdJyOWKAqw80NDTEsmXL4sCBA/Haa6/FD37wg+jo6Ig1a9ZUf07f95NKDFamtEX8drT6448/jgMHDsShQ4fiS1/6UixatGhAt+O2226L9vb26lrny5Yti7lz58bWrVujXC7HtGnTYvHixbFr16743ve+F5s3b66OTFfe/87FnDlz4utf/3osWLAgMplMzJs3L/7lv/yXsWnTpjhy5EiMHz8+Fi5cGA0NDfF//s//iVdeeaU6mNQzYM/2vn86lVHztWvXxtq1a0852nq67pg6dWroV/E6ZHpOph+M4+3t8dbbb8f27dsjk8nE0qVLY/78+b0+Z+7cufH7v//71RfXnnNt+v7p+6Cv7JH2HDmofGzXrl3VQ1SrVq2qXp1k5syZ0dHREceOHYtVq1bFoUOH4l/8i39xxmXAAGpZV1dXdcnDa665JsaNGxe/fPrp+Oijj6rB2L2M1KaYOXNm3HXXXXHddddFXV1d7Nu3LyZMmHBOSwqWSqVYtWpVvPrqqzF+/Pi48sorq6vXVJaF6u995bdnohejubk5br311nj++edjxYoVkc/nY+HChQM+UjZhwoRYvnx57N27N959991IkqR6WLvnWfv9vb9UZDKZOHbsWLz33nvR0NAQt99+e9x4440Dvg3XXXddr/fQfD5fXX6r8vEdO3bED37wg9i8eXO/37fn7Tvbe/GkSZPi/vvv73X7L7roorjooouqHzt06FA88cQT8corr/T6vYdi1LXnyXgD/d7dI/Geo+J1hOjo6Ij333sv3jp59uKcOXPi/vvvP+UFMJPJnHbktucT9Ux7bn2Dt1AoVNfOS9M0jh8/HkuXXhfXXde9wPO+ffvi17/+dWzYsCG2bdsWK1eujHnz5lkkGRh1SqVSfLJhQ7z+2mtx8803x+WXXx6LFy+Ourq6qM/n47333oskSaKzszPmz58fDz30UHWZrE8++SSeffbZWLp0adxyyy0D/pkHDx2KF198MQqFQtxzzz2xePHiWLNmzSmv5X1fv3/78e5/33777dHV1RUrV66MlStXxowZMwZ0wlZFa2trPPjgg9HW1hbbtm2LbDZbPTlqIAHaM8SuvvrqWL58+aCuQtbf+1dlh+Hxxx+PTz75JHK53LAfPj9w4EA8/fTT8corr0RdXV2vAaAzRfz5/K4D+Z5ORRGvQ+Z8zjjs6uqKNWvWxEsvvRR79uyJlpaWeOCBB/pdh/VszjQ3qudIa9+vqXysVCrFVVddFV/60u9UrxyzYMGCaGpqikOHDsXu3bvjgw8+iEOHDvXaOwUYDdI0jSOHD8eOHTuira0tyuVyZLPZuOiii2LGjBm9jm6NHz8+pk6dWp1GdeTIkdixY8c5LVGVpml0dXbGwYMHY9KkSdU1RntORTvd/Mqeh++LxWJMmDAhWltbI43utci7urrO+fdfvHhxPPDAA/FP//RPceLEiX7XHD3de07l9sybNy9uv/32uOiii4ZsXuimTZviiSeeiLVr11bD9XRHO4ciaiuXfH3jjTeiVCpVp0f0d3RzsL/j6Y6U9t22fbfxAFfjQrwO7EFY2TM9lydOsVis7q1/+umnMWXKlLjnnnviqquuOqcnxNlWOaiEac8nRH+HVsrlclx++eW9LnmYzWZjwYIFMXPmzNi7d28cO3Ysdu3aJV6BUSebzcZll10WU6dOjZaWlsjlcrFr16545ZVX4r333us16rZ27dp48skn495774158+bF4sWL4/d+72tx8cUzzum9o3LVpN/85jfx5ptvxsSJE097tnzfsKm872Sy2Vi7dm08//zzUZ/Px9VXX31Oo649B2Kuu+662Lt3bzz9q19Vl4XsL9R6LudVeQ+aMWNGLF++PBYsWDAkR+eKxWJs2LAhfvWrX8W6deuqP7fnbRmqUdCe4frss8/Gm2++Wb0sb8+diL7nlpzPz+7v/JSeg0p9p4xYIku8Dnm8nusDqlwux6effhq//OUvY8OGDTF+/PhYvnx5XH/99YNa6DqbzVafVJVQ7flgL5VKvcK18oKUzWZ7TULvOQG/orGxMaZMmVI9jHT06FGPeGBUvpY3NzfHpObmSKL7DO9f/epX8d5778VFF10Ul1xySWzcuDFmzpwZ+Xw+3n///Th+/Hh1Ifurr77qnH/m+PHj46677opCoRAfffRRTJ48OcaPH3/K6F5/R84q/6/9+PF49tlnY+/evfHggw/GjTfeeM5X/Dp69GiUSqWYOHFi3HXXXXH48OHqXM/+3hd6ntWfpmk0NjbG9ddfH1dcccWQXNCmWCzG+vXr45lnnokNGzZUf/+e72On+/dgo3LPnj2xYsWKePvtt6sXHeoZjH3X1j3XAavT7YScKVj7+SpP1CGUGesveOeyhFSaprFz58547LHH4uOPP47Gxsa466674tZbb43x/VyKbiDhWpkfWygU+j1c1NXVFV1dXZHJZCKfz1df2HK5XIwfP776JD1x4sRpYjvttXcOMFpfzwuFQnzwwQfxox/9KD788MOYM2dOfO1rX4vLL788IrqXPfzqV78aV155ZWzYsDF+9rOfxbvvvttr2cQBv3lmMjFt2rSYO3duFIvFOHjwYHWwoWcc9V3ntXK2emXN1cOHj1SXjTrX95H29vbYv39/7NmzJ44cORITJkyIBx98MK677rrTjgJXRlwrV8O67rrrYtmyZYN6D+svXNeuXVsd3KmMdPYNvdNF6mBGKA8cOBC/+tWv4o033oj29vZ+R3b7jngP9OSwc3nsne3/p2k4aUu8fjYOHz4cP/3pT2PdunXR1NQUy5YtizvuuCMmTpw4qL3FbDYbLS0t1bM99+3bF4VCodeTYd++fXH06NHI5XJx0UUXVU/8SpIk5s6dG3V1dZHL5WLDhg3Vr63o6OiIQ4cOVl+kWlpa3InAqHVg//54/fXXY926dbFo0aL45//8n1dP3KqszDJv/vx4+OGH48orr4idO3fGyy+/3O+VnQYaaq+88kp1hYMJEyaccX5lz3mwlfmuN974uejo6IhnnnkmNm/efE4///jx4xERUVdXF8ePH4+urq6YOnVq3H///dHa2tprxYGetyWXy0VdXV0sXHhp3HfffdWrPp6Pygo4K1asiI0bN1ZHO/tbsut0I9HnejT00KFD8dRTT8Wvf/3r6pJjBmnEKz10dnbG448/HqtXr47Gxsa47bZl8cUvfvGsT/o0TaO9vT22bdsWGzdujGPHjlWfuLlcLhYsWBATJkyI9vb2WL9+fRw4cKDXi9PLL78cnZ2dkc1mY9q0aTGpx0UWFi5cGFOmdC+K/eGHH8b777/f62evXr06Nm/eHMViMVpaWqrX3wYYjaZNmxZXX3113H333fHII4/EnDlzqldBqq+v7x7tLBRiy5YtsXv37oiImDlzZvVw+UBH4tI0jb1798YvfvGLOHbsWDz44INx9dVXV6dy9TwUXpkWVvm6nmf3l8vleOCBB+KBBx6IzZs3xzPPPBMHDx4c0G3I5XIxbdq0mD9/fixYsCBaW1sjn89X1z596KGHqvNwe97uym2bMGFCPPTQF6pXjDzvHYcDB+LJJ5+sznGt/LwzHbLvb9nIgTre3h6PP/54vPLKK9HZ2dnr+wzk/jMHtbaN+aWyBvIALpZK8fjjj8cbb7xR3cvt6uqMF154odcTsbIsR0T3mZuXXnppZDKZWLduXfzkJz+Jffv2xW23LYtHH300GhsbIpPJxOzZs+Oqq66Kt99+O9auXRs/+tGP4uqrr46mpqZYvXp1vP3225EkScyaNSuuvfbaXpPpp0yZEsuXL48f/ehH0dHRET/5yU9iz549MX369Ni5c2e88847cfjw4cjn83Hvvfee0xqGALWmrq4ubr311n5f29M0rY7UvfzyyxERcc8998Tdd99dvSTrQIMmSZKYMmVK3HfffRERsXTp0uoUrv4uTNDzggV9f0Ymk4nly5fHhAkTYlJzc68BirMFWN+fV4niXC4XV1xxRdx1113x3HPPVaeVVc5/yOVy8fDDD8fixYvPe5tXrhz5wx/+MD766KN+L7rT83fveyLTYAeTfvHEE7Fy5cpqiPY8Iay/79v3ogQ9pw5kjdaK11ozkCdP+/HjsXbt2igUClFfXx/Hjx+PV155pde1qyt705UnyP333x+XXXZZFIvFOHDgQBw9ejSKxWJs3bo1Ojs7orGxOyQrk+yPHj0a69evj1WrVsWqVauqy6g0NDRES0tLfOGhh2Jen4sfRHRf3aStrS2ef/75OHToUDz++OPV25HJZGLcuHFx2223xbXXXmtvExiTAxLlcjm6urpi8+bNsX79JzF+fPeVuG6//fZBnd0f0X2Fq5tvvrnXx0ql0imjf32j6bfB+ds5mE1NTbHs9tu7T/wZ4Gt0oVCIw4cPV9f7rizWX7la2Lhx4+Kmm26KAwcOxLvvvludQpDJZOK+++6LG2+8ccjC9Qc/+EGsX7++13vg2d5be55M1fO96WzvUUePHo2f//zn8fLLL/d7Vv9A3+dOF7mI15p4kZszZ04sWbIkGhsbY/r06f1+XiabrR6Syefz/U6E77tXXZlfms1m45JLLolrrrkm9u/fHzfccEN1L7/yQjJ37tz48pe/HG+//XZs2rQpjh07Vt17bm1tjc997nNxxRVX9P55EZFE96GjBx54IKZOnRqrVn0Qe/bsrl56cMqUKXHZZZfF5z73uWhqavJEBcakSuR0dHTE7Nmz484774zrr7++12vxUOg557JvlPUM3GKxGOPGNfVaDSCJczvTvjJv9dChQ9HZ2RlTp049ZaWC6dOnxx133BEHDhyIjRs3RpqmsXTp0rj//vvPe0msNE1j69at8ZOf/CTWrVs3gLPtT/36/fv3x8cffxz5fD5OnDhx5mXGIuLQwYPx9NNPx8svv1x9nzvb8mSnU4nsc90Ofac4DPRn53LZyGQMHonXIXpBW7ZsWdxwww3VPdX+jGtqiq985Su9ziTte0ik74tO5RB9JZC/8pWvRFdXVzQ3N1cXx+75gjdnzpyYMWNGHDp0KNra2qqrC0yZMqXf25WWyxEnn0C5XC5uueWWuPLKK+PAgQNRLBajrq4uJk2aFBMnTuw1DwtgrGlpaYmZM2fG1KlT47777oslS5b0u4zU+ZoxY0bMmTMntm3bVl1NoGcc9ZxidvXVV5/zslh9378mTZrUfcGErq64aNq0yPUTYnPmzIk777yzurrNP/tn/6w6Ons+9u7dG4899lisW7eu15SJMy0P1teGDRvi008/rZ603NDQcMr7Y8WJ9vZYsWJFrFy5sjrCWygUBhTN/V3JshKv57IDU7nIRXNzcxw+fPiUS7j3Xe+159dNnz59SJYiQ7xGRPfhmrM9kZMkGfA8pOpeXY8ncjabHdDX5/P5aGlpGdSqAEmSxMSJEwd9CAxgtKqsPDBp0qSYOXPmsO3Iz5w5Mx566KHYvXt3rzW6e0ZUmqYxfsKEuGQILgiQyWSiubm5OgrZ75t8LhdXXXVVTJs2Lerr64ds1ZnOzs5oaWmJ5ubmXr/bQNZR7TlqWVnfvFQqxZw5c057IZ1SqRR1dXVx2WWXRX19fRSLxV5ro/f3/c/2s+vr6+Oqq646p+198cUXx9133x3r168/ZYm1vifkVT42YcKEuO666865IzhD85zLcHuPO+N/R8Qf23xn39Mz2gkwtvQ9lN33fTaTydT8kk7FYjHa29sHfdi+Z/BW/j5u3LhobGw87ee2tbVFe3t7rytjDvRn9/deXFdXF83Nzee0E1EqlaKjoyPa2tpOWZ6y58/qGa8NDQ0xadKk8xppHwZ/nyTJn5zuMTrS5bzMDNNegWgFGJPGwlqjuVzugh7pqxwB/axHL7PZbIwbN27I50tzjs8xmwAAAPEKAADiFQCAscqcVwBg1OrvqmeIVwCAEUmsjj6mDQAAIF4BAEC8AgAgXgEAQLwCAIB4BQBAvAIAgHgFAADxCgCAeAUAAPEKAADiFQBGuzRNI01TGwLxCgAAI13OJgCA2pEkiY2AeAUARr40TaNUKkW5XI5yuTziblslrntOa+j7756f31+In+7za20H42x/EK8AMKqVSqUoFovV+Mlms5FkRtDsv0qMnozPSoRmeoRaevLz0jSNNCIymUz3v0/+/8rnlms4XtOTOxWVucl9/0REZLPZyGazkcvJMPEKAKNEOU2jVCxWR1iz2Wzk8/kxMWpX0yfkZLNn3xEpl6NYKESpVIrMyZDNGI0VrwBQi0qlUhQKhe6Iy2TGTLCOJdlMJrL19dUpIMVC4bej6aYViFcAqLm4OXlIWcSM/vs5m81W5zCXSqXuqRbZbOQGMIIrXgGAERM0jB2ZTKZ7/m90j7yXSqUoJ0n1Y4hXABgR0jSNcrkciVChx85LkslEqcfJefSJfZsAAD4bxR4nZEE1zk7Of/X4EK8AMGIUCoUol8uRy+WMunJqoJ2cSlB5nCBeAeAzUywWo1AoRF1dncPCPaRpWtNrvA5HwGaz2SiePJEL8QoAF1y5XI6urq7utT2NuPZSKpWiXCrZECdVls+Kk1dWo5sTtgDgAqqEaz6ftzH6GImji2maRkdHR/XqZvX19VFXV3dBAzaXy0WxWIxSqWQlCvF6+sdqRHSd/Hs+IhzTAeC8VUbPTBcY2eHc1tYWGzdujFWrVsWaNWti7dq1sWPHjqirq4s5c+bEwksvjUsXLozrr78+Lr300mhsbBzW+zOTyUQul4tSqWRlCvF6+h3jiNgVEdOFKwBDFUdpmkY+nzddYIAReSGVy+U4dOhQvPPOO/GTn/wkXn311di8eXP1amcVb731VnUHZP78+XHnnXfGo48+Gp/73Odi0qRJwxqwlQsZjPUltMRr/+oiYmZ0j7oCwJCwbufZw/Wz2D5dXV2xevXq+P73vx8///nPY9u2bWedY1ooFGL9+vWxfv36eOaZZ+LrX/96/NEf/VHMnz9/WKYVpGkamUymehUu8copOzjCFYChDI+IMF/xLCoXbLiQ90uxWIyVK1fGf/tv/y1eeuml6khrPp+PyZMnx6xZs2LGjBnV+66zszN2794du3fvjkOHDkWhUIitW7fG//utb8X7778f//E//se45ZZbIpcbnsSqXE52LO8IiVcAGGaVUbzhCprRFK8XUpIk8dprr8U3v/nNeG3lyiiVy5HP52POnDlxyy23xE033RTXXHNNLF68uDpP+ejRo7F+/fpYvXp1vPHGG/H666/Hzp07o1gqxTPPPBPlcjn+03/6T3HLLbcM7c5KkkRy8jaP9dFXzyIAGEaVua6mCwx8e10oH330UfyX//JfYuXKlVE+Ga433XRT/Mmf/EksX748WltbT9nhmDRpUrS2tsayZcvioYceihUrVsTf/d3fxerVq6NcLsdLL70U48ePj8mTJ8cVV1wxdO16MmCrO0Tl8pidOy1eAeACxJiTtEaWw4cPx1//9V/Hq6++GuVyOerr6+O2226L//Af/kPcddddMW7cuH7vyyRJqifeLVy4MFpaWmL27NnxV3/1V/HOO+9EZ2dnvPDCC7FgwYL4xje+ERdddNGQP56SJBnTV93yTPqMuNQbwNhi5HVkefHFF+Oxxx6rrrt7zTXXxDe+8Y24+557oqmp6Yz3Yc/7csKECfH5z38+/ut//a+xZMmSahg//fTT8etf/3rod4b67BSJVy7chrcHDiBePwPHjh2LLVu2xNatW+P48eO9w2iMBNHhw4fjH/7hH+LQoUMRETF58uT40z/907jrrruiqZ81Wzs6OmLbtm2xY8eOaG9vP+X75fP5WL58efzFX/xFjB8/PtI0jfXr18dTTz0V+/btG9p+OHnVrcp0FPEKAAyZ9ORlPUdCuJ44cSJ+8IMfxIMPPhjXXH11XHvttfHlL385fvzjH1cjdqyMDq9evTp+8/77US6XI5vNxrJly+IrX/nKKVc9a29vj3/4h3+IL37xi3HzzTfHzTffHI8++mj84z/+Yxw9erTX59bV1cWXvvSlWL58eUR0L7+1atWq+OSTT4ZlRyhJkiiP0Xg15xUAhjlghzMKu7q64siRI9HV1RUXXXRR5PP56s+rjMx1dHTEd77znfjWt74VBw8erH7tihUrYt26dbFnz574+te/Hs3Nzafc9hMnTsThw4ejLp+PSZMmRV0uV/OR+/rrr8ehw4cjIqK+vj6+8IWHYvLkyb0+59ixY/Htb387vvWtb/Uabd2+fXusXr069u7dG3/0R38UU6ZMqf6/CRMmxO/8zu/Eiy++GMePH4+1a9fGmjVr4uZbbonMMGyztFyOGINHco28AsAwhutwnuNw5MiR+O53vxtf/epX45FHHolvfetbvQ5TV0boXn311fjbv/3bXuFa8emnn8b3vve9+PDDD3vd1jRNY/fu3fHtb387HnnkkfjDP/iD+MmPfxxtbW01fZ90dHTEli1boqur+yrwF198cdx66y29PqdYLMaPf/zj+Ju/+Zt+pwls3bo1vvvd78ZLL71U/T4R3VMCr7jiipg5c2b1Z23dujWODvE2G+snbRl5BYBhDtjh8uKLL8a3v/3t2LJlS0R0L/3U3Nwcf/Znf1b9nFKpFCtWrIi9e/ee9vusWbMmVq1aFdddd131ZKVCoRA///nP46//+q/jwIEDERGxf//+mD17dtx66601e8GF9vb22LZtWxRPXoygtbU1Zs+e3SsK9+7dG08//XS/sV+xZcuWeO2112LZsmUxffr06s7C7NmzY/r06fHJJ59EV1dXbNu2LY4cOTKkl46t7JSc7Spgo5WRVwCoUW+//XY1LCO6R/peffXVXp9TKpVi+/btvUYI+zp+/HgcOHAgisVi9WPFYjF+/etf9/r+a9eujY0bN/b6vFrT2dkZBw4cqIZfJpOpXs61Mh1i9+7dsX379urVtk73fTZv3hLHjh3r9fF8Ph/19fXVbX/w4ME4ceLEkP8eY3n1CvEKAMNoOCNj4cKFMWHChOq/m5qa4pprrjnl50+fPr0aaP1paGiIiRMn9hpNzWazsXjx4l7rnba2tva6VGqt3h/ZbLbXgv991dXVVa+oddqAymSiqanxlG3R81B+kiSRy+WGZYWhsRyvn/W0gcqxFIvfATAqw3U4I+P++++PtWvXxgsvvBAdHR1x2223xde+9rXeb/S5XNx1113xxBNPxKefftrv91m0aFFcccUV1RHDiO4RxEceeSS2bt0ar732WkyYMCG+/OUvx9KlS2v6MrdNTU1x8cUXRy6Xi0KhEG1tbdHW1haNjY29Iv2yyy6Ld955p985rxHdJ2ctWrSo185DmqZx6NCh6rzgXC4XM2bMiPHjxw99QI3hdV7NeQWAYZQ5uSbncJg5c2b8+Z//eTz88MNRKBRi7ty51fmbPQP6zuXL49FHH43vfve7p5xw1dLSEo8++mhce+21vaI0SZK45JJL4i/+4i9i69at0djYGHPnzu11dn0tGjduXCxYsCDq6uqiUCjE1q1bY/369dHS0lL9nEmTJsXv/u7vxltvvRWrVq065cSoTCYT1157bdx1110xceLEXkG5adOm2L59e3UHYM6cOaes4jCUO0fi9cJLw6grAKNUkiSRGcb1OJMkiZkzZ8bFF18caZqe9vD0lMmT48/+7M9i7ty58dOf/jTeeuutyOVysXTp0njkkUfi4YcfjqlTp57yddlsthrEwz2KfKFks9lYuHBh1NfXR3t7exw9ejRee+21uP3223vF6R133BF/9Vd/Fd/85jfjnXfeqf6/urq6uPWWW+Ib3/hG3HDDDb2Cv1wux1tvvV1d8WHy5MkxZ86caGhoGJ7H1hi94JGRVwAY5oCNGN71XgcSlrNmzYp/9a/+VXz10Udj544dkaZpTJs2LaZOvSgaGurPOr9zNLn99tujpaUlDh06FJ2dnfHTn/40vvrVr8Yll1xS/ZzGxsb4/Oc/H4sXL45nn302Xn/99chms3H33XfHHXfcEa2trVFXVxelUikymUwkSRJ79uyJJ5/8RfVksCuvvDKuvvrqYb3fxetn8JwOI68AjAHDfbGCgYROQ0NDNDQ0xPRp08b0fbFgwYK444474pNPPolSqRTr1q2L//W//lf85V/+Za9R0rq6urj00kvj0ksvjX/zb/5Nv8GYnAzXiIi//dvvxvvvvx8R3XNib7zxxpg/f/6wPJYioqZPnDsfn/WulHAFYFRLkmRMX4d+JMrn8/GHf/iH0draGhERR48ejX/8x3+M733ve9VL5fZ3P/a385FJkujo6Ij/+T//Z/z1X/9/3R87ebGCz3/+89V1c4dSuVyOGCXTOGoxXgFg1MdrJpMRrwOJkkzmgk1RuOXWW+Pf/bt/V10tYPv27fE//sf/iO9///uxb9++AV29qlQqxf79B+Jv/uZv4j//5/8cx44diyRJorW1Nf7wD/8wbrjhhmG57WmaRlhtAAAYLgM5vPtZTysYKaF/obZBJkni61//eqxbty5+8IMfxPHjx+OTTz6J//7f/3ts3749vvCFL8SiRYti0qRJvdbITdM0urq64vDhw/Hxxx/HL37xZHz/+9+P/fv3R0T3SVoPP/xwfPnLX458Pj/04XryNozVk7XEKwBcoCirhEf0E6nlcnlMx8hnFfAtLS3x5//+30dHR0c8+eSTcejQodi0aVN8+9vfjhUrno1ly26LpUuXVk/OStM0Tpw4EZ9++ml88MEHsXLlyvj444+js7MzIiKam5vj0UcfjX/7b/9tr6W3hnQbnZwyMKafT+dyGKPHGZP/OyL+2MsRAAwwOqL7MHOSJJHtE6ritVtnZ2ckSTIsI5anUzlh6+///u/jxz/+cWzfvr3XpWNbWlpi+vTpkc/nI03T6OjoiN27d8fBgwd7TS2YN29efO1rX4t//a//dSxYsGBYbmu5XK4+Vs7z8fL3SZL8Sc+dhlpi5BUALki9plEulyPXzxQC4drts5g2kc1mY8mSJfHnf/7ncdlll8Vjjz0Wb7zxRjVOd+3aFbt27Trt10+fPj1uueWW+NrXvhb33HNPTBumlRzS+O2lZ8f69BLxCgAXKMwySVIdfR3rATKSAjaTycSsWbPi937v9+KGG26Ila++Gi+9/HKsWbMm9u3bF4cPH46urq5IkiTq8/mYMHFiTJs2LZYuXRrLly+PZcuWxfz583tdXnfI4/VkuGazWXOjTRsAgAsjTdMoFosREb1OAqJbV1dXZDKZXletutDK5XKcOHEi2traYt++ffHpp5/Gpk2bYs+ePVFfXx8tLS3R2toaM2fOjBkzZsTkyZOjoaFhWIOyOl0gm43M0Pwc0wYAgLNLkiTq6uqio6MjMtnsKXNfx7pMJhPJZ7xNMplMjBs3LsaNGxczZsyIK664IkqlUpTL5eqyZ5U/ycmR9OHe4alcxStjtF68AsBnIZ/PR1ehENlhPMxck1GSG1lZkiRJZLPZ0y51VlmyargP42cymTF7Na1+t4dN0P/jMSLKNgMAwxYjmUwUCoUBLYbPCAyFk8t6DWe4VkZdEyP04nUA4ZqGS9cCMIzq6uoikiSKxWK49lbtuRAnTVVGdk0X6M20gX4ej8IVgAshm81GmiTd8yn7hNFQxFHPE3GsbnB+2/BCbr/KqK4l1MQrAIwomSSJyGajnKaRlsu9rjBViabzDRiXnR2CmIwLM6pVWVUgTVOrUYhXABjZEVtOkkhPXsggPfmx8w1X68mevyRJhjVc0+hew7Xc44+Ts8QrANRGJJ2cQlAul6Mc3dMK4uTFDRh9yuVylEqlXqPs2WzWdAHxCgC1Ea+VcKmMwJZKpSh1dkaSJJHL5SJx8s6oitZyuVy9KINRcvEKADUbsZWTdbLZbPWqXF1dXRER1cAd0PJJF/DKSX2v0nSmEOt7IlnfeblDepLUUHyPAW7Hyu3u+fulaXrKxysXOcjn80P3e4pXAGAkhGxE97Ja+Xw+yuVyFIvFKBaLZw2eShReyHit/BlIjJ1uJYT+YvZ8DMUh+P6i9HSfV7ndlZ2Qyoh6JaIzRljFKwCMhYCt/L2urk78IF4BgNoKWRirnM4GAIB4BQAA8QoAgHgFAADxCgAA4hUAAPEKAAAj1GeyzmvfK1RcyCuA1Ir+ri7S39VIen5e5e+2J1w4fZ9zp7vE5VBeMQionffyM71e9H3N6K8DBvqe3vdiFmf63uJ1AHdc38uq9byE3HDHa3/XRx7sz+vvTaq/6zGP5IAUtozVwDzd4/9cn699v5cwBQbzXnyurxmnG/jr73K0mUym179H2+vToOK1o6Mj0oFs5B6RWq7Eapp2f22P/16QB0rfN6B+PnbWN60eX5Oc5vuf6XN6fm7S47+nvZ1CE4Da2Us85b21v/fE/v6d9Plv3/feM73XniFERm/8Vn6/k9u858519U8mE5mT/+0bsLWesoOK1927d59xVKJS/H3/23cPYbCjFaf7uv5GWQEARmfFpqdEfM+j2+Vyudefnq005uJ14sSJZ/zlBzM/49x27pIh/X4AAKNBz1HWbDbbbyMlSZKkaZokSVKTJTuoeJ0wYcIpHyuVSlEqlaJYLEapVKoWPgAAn13MZjKZyOVykcvlIpPJRCaTyXzzm98czAzKkfE7DeZEhc7Ozv+dpukf9wzXYrEYxWKx14lYAACMjICtq6uLbDYb2Wz2B/l8/l9GRLF7ELa2um1QI6/lcrkaqOVy2WgrAMAIVZn/WiqVKiGb37VrV93f/d3flaIGR18HdZGCTCYT2Ww2MplMNWCFKwDAyA7YkxFb39jYmP/Lv/zLmjxZaFDxWpkMnKapEVcAgBoJ2JNHzvO5XC4fEZk0TWsuYHOD/eUrw8+lUskcVwCAGonXcrmc7+rqqo9BDmJ+1jLnuxEAAKidgI2ITCaTyW7fvn3sxOtovdwYAMBYCNiOjo6avf2Zwf7SAADUlpMDj6W6urpCR0dHTZ60dF7DxZVVB4zAAgCM/HA9uVRWZ6FQ6Dpy5MjYi9eI6LVkFgAAIzdcT/7pyufznddff325Fi8Re94jr0mSGH0FABjh8Xry0rCRJElnW1tbV0SMzZHXytQBAQsAMHLDtXK0PEmSwrx584q1+vtkhmqDmDoAADDywrUyyFg5Yh4RpYgo1eKUgSGJ18qGsXQWAMDICteeR8gr8ZrJZMq1Gq5DFq8AAIzcgO0x6hoRUdNrng5JvFYuN2b9VwCAkWM09llmKDZKuVyOcrksXgEAhGvtxCsAACMrYEfbAGPmfDfIaNwoAACjLV5HS6tlhnKjAAAw8gLWyKtwBQAQr7UWr6NxgwAACNhRGK/muwIA1Ea4jqYT64fkhC1GLlc+AwBGU7PlBttElQ1BLQVsGmnqfgOAsRiulT+1PqiVG4oNwsh/0GYyGfcbAIzxgD2pput1UPFaLpcTUwZq58F68j6zMQBgDPdAj/OUajpeBzXnte8oHrWzx2WnAwDGph7xmk3TtGYDdrAVmvQMIgAARq6eq0SVy+W6iMiOpXhNyuWy09cBAGpIZeS1XC7X79q1K1+ro6/nHK+Vk3+MugIA1GTANjQ1NdVHjc59zQzyFzfyCgBQQ3pMG2gsFAqN7777bk1OHXDmFQDA2FKfpmnT9ddfX5MdeF4nbAEAUDtOjr7my+Vyw65du2py1YGcuxEAYEwFbC6TydRlanTtU/EKADC2JEmSZKL7SHr39eNriDmvAABjq1xLuVyulHYvG1VzS0cNNl6tkQUAUJvxWiiVSp3FYrEmrx2fOc9f3iMAAKB2wjWSJOnMZrPtx48fLyVJMjZGXjOZTFoJVwELAFAz4RpJkpzo6OhoX7hwYakWf4/BXqRAuAIA1Fi8ZjKZSJKkI5fLdUTE2Jg2kCRJmolMmqSZSCITiSVfAQBqJl4zmUzH4cOHu6JGz2Ea1MhrEkkaSRpJcnIIWsACAIz4cD05baCwcOHCYi3Odx10vEaU0iQq8RqutwUAUAMBezJiS1GjUwYiBnmRglKUo3thsFS4AgDUSLiePF8prdVR14hBrzaQS5MkE5U/AACM/Hg9qabX688M0UYAAGCEh2tl5HUsxmv3b56mUS6Xo/vqYgAAjOSIHQ3OOV7TNE0iykm5XIpSqVhd8xUAgBEafCdXGqjk3JiK14hIIjLZNE2jVCqLVwCAGgjX0TLl85zj9d13380WSoV8sVQSrgAAI1iP5bHG7rSBlpaWXFpKG9Jyaq4rAMAIj9fRFK7nHK9pmiZNTU11mUxSn6ZO1AIAxraTl1sd0eGazWZHVcCe80UK6urq6tK0XF8uC1cAYGyHazabrf57pE2nTJIkcrlcrzmvlY+PqXg9ceJEbnxDIR9pXZzHMrEAADUdrrlcLrLZbK8j0Wk6MqZVJknSa8Q1k8lUb1etHznPDOLOyhT2vpNLiyc8cgEYs1ysZ2yHazabrcZh33+PhMdF5XZVbku5XO71p5blBvFkzSTHN2Rj3BURWQ9gAMZOrPb394hwDsgY3Wkp9Vh5qfIY6Lkk1Wc10tkzWIvF4ilzcsfctIEkSZJMZJOTF9kCgDEbrqJ1bD4Oute6Lw14J+azeMxUroLa3yjrWIvXpKOjI8k0LYzI1HkUAzAm9J3TyNh+HIz0x8DZ5t3Werye85zXcrlcTiZeWYpMvUcxAAAX1LmOvKZ1dXWFUqa+KzVJHeCCO58REyOGw7dtbePavB8Hcn9diFHKoX7cjPYTCc95zms+n+8sl0qWGhjt0jS65zWnlWeCbQI1FlL9fU9xNbxv7j3nRDLy78+xulrEmJrzmiRJum3btq5xDePaS1HybBmV0RqRRBK/PSGvxwuxfoULuP8ofmxf3J+2R3/Oec5ra2trIU3TjiRVMqMqWNOk+89pCjVRrgDACJAbxNeUkyTtspczCoK17wcAAEa4cx55TZKknKbdcwYSvVN7wVr5M4gvd38DAJ+13CC/rtwzaMwgGLmxGjG0U1WTtMcYrfsdALjAMkPyXYzIjbhorYyuDkdfVr9v6v4HAC6s3FB8k0S/jIxgvcA/sr+ANQoPAIz4eI0Yo9MHehyW/yx+917xOJK2SVLb92X1Q0IcAEZvvH6mAXuBg6m/aKyczJT2+8lD+7uO5KaqbJsRGX7p8NwlAECNxutnEZLVmOtRjcMaTukA4u00n58Oppxq9NoAyWcxjUCcAoB4PedoiQtzJPuMh8yHKaDPd6mopL+YPVP4jgK9RqTP9xdMR//2AgAucLxWgmVIRtzS0wTgQAJ6iAN2ONY4HUvxNSLn5wIA4rVXeCbn+PlDGHTJ6fv3nH8PI3wAAKM8Xs9l+sCwXbkpPY+VAEQrAMDYiddKlJ51ruMFOJR8rvMuXQYVAGAMxmulFU83//RCR2LPeZdj4WQpAADxep7ROFKIVQCA2pOxCQAAEK8AACBeAQAQrwAAIF4BAEC8AgAgXgEAQLwCAIB4BQBAvAIAgHgFAADxCgCAeAUAAPEKAADiFQAA8QoAAOIVAADEKwAA4hUAAMQrAACIVwAAxCsAAIhXAAAQrwAAiFcAABCvAAAgXgEAEK8AACBeAQAQrwAAIF4BAEC8AgAgXgEAQLwCAIB4BQBAvAIAgHgFAADxCgCAeAUAAPEKAADiFQAA8QoAAOIVAADEKwAA4hUAAMQrAACIVwAAxCsAAIhXAAAQrwAAiFcAABCvAAAgXgEAEK8AACBeAQBAvAIAIF4BAEC8AgAgXgEAQLwCAIB4BQBAvAIAgHgFAADxCgCAeAUAAPEKAADiFQAA8QoAAOIVAADEKwAA4hUAAMQrAACIVwAAxCsAAIhXAAAQrwAAiFcAABCvAAAgXgEAEK8AACBeAQBAvAIAIF4BAEC8AgCAeAUAQLwCAIB4BQBAvAIAgHgFAADxCgCAeAUAAPEKAADiFQAA8QoAAOIVAADEKwAA4hUAAMQrAACIVwAAxCsAAIhXAAAQrwAAiFcAABCvAAAgXgEAEK8AACBeAQBAvAIAIF4BAEC8AgCAeAUAQLwCAIB4BQAA8QoAgHgFAADxCgCAeAUAAPEKAADiFQAA8QoAAOIVAADEKwAA4hUAAMQrAACIVwAAxCsAAIhXAAAQrwAAiFcAABCvAAAgXgEAEK8AACBeAQBAvAIAIF4BAEC8AgCAeAUAQLwCAIB4BQAA8QoAgHgFAADxCgAA4hUAAPEKAADiFQAA8QoAAOIVAADEKwAA4hUAAMQrAACIVwAAxCsAAIhXAAAQrwAAiFcAABCvAAAgXgEAEK8AACBeAQBAvAIAIF4BAEC8AgCAeAUAQLwCAIB4BQAA8QoAgHgFAADxCgAA4hUAAPEKAADiFQAAxCsAAOIVAADEKwAA4hUAAMQrAACIVwAAxCsAAIhXAAAQrwAAiFcAABCvAAAgXgEAEK8AACBeAQBAvAIAIF4BAEC8AgCAeAUAQLwCAIB4BQAA8QoAgHgFAADxCgAA4hUAAPEKAADiFQAAxCsAAOIVAADEKwAAiFcAAMQrAACIVwAAxCsAAIhXAAAQrwAAiFcAABCvAAAgXgEAEK8AACBeAQBAvAIAIF4BAEC8AgCAeAUAQLwCAIB4BQAA8QoAgHgFAADxCgAA4hUAAPEKAADiFQAAxCsAAOIVAADEKwAAiFcAAMQrAACIVwAAEK8AAIhXAAAQrwAAiFcAABCvAAAgXgEAEK8AACBeAQBAvAIAIF4BAEC8AgCAeAUAQLwCAIB4BQAA8QoAgHgFAADxCgAA4hUAAPEKAADiFQAAxCsAAOIVAADEKwAAiFcAAMQrAACIVwAAEK8AAIhXAAAQrwAAiFebAAAA8QoAAOIVAADxCgAA4hUAAMQrAADiFQAAxCsAAIhXAADEKwAAiFcAABCvAACIVwAAEK8AACBeAQAQrwAAIF4BAEC8AgAgXgEAQLwCAIB4BQBAvAIAgHgFAADxCgCAeAUAAPEKAADiFQAA8QoAAOIVAADxCgAA4hUAAMQrAADiFQAAxCsAAIhXAADEKwAAiFcAABCvAACIVwAAEK8AACBeAQAQrwAAIF4BAEC8AgAgXgEAQLwCAIB4BQBAvAIAgHgFAADxCgCAeAUAAPEKAADiFQAA8QoAAOIVAADEKwAA4hUAAMQrAADiFQAAxCsAAIhXAADEKwAAiFcAABCvAACIVwAAEK8AACBeAQAQrwAAIF4BAEC8AgAgXgEAQLwCAIB4BQBAvAIAgHgFAADxCgCAeAUAAPEKAADiFQAA8QoAAOIVAADEKwAA4hUAAMQrAACIVwAAxCsAAIhXAADEKwAAiFcAABCvAACIVwAAEK8AACBeAQAQrwAAIF4BAEC8AgAgXgEAQLwCAIB4BQBAvAIAgHgFAADxCgCAeAUAAPEKAADiFQAA8QoAAOIVAADEKwAA4hUAAMQrAACIVwAAxCsAAIhXAAAQrwAAiFcAABCvAACIVwAAEK8AACBeAQAQrwAAIF4BAEC8AgAgXgEAQLwCAIB4BQBAvAIAgHgFAADxCgCAeAUAAPEKAADiFQAA8QoAAOIVAADEKwAA4hUAAMQrAACIVwAAxCsAAIhXAAAQrwAAiFcAABCvAAAgXgEAEK8AACBeAQAQrwAAIF4BAEC8AgAgXgEAQLwCAIB4BQBAvAIAgHgFAADxCgCAeAUAAPEKAADiFQAA8QoAAOIVAADEKwAA4hUAAMQrAACIVwAAxCsAAIhXAAAQrwAAiFcAABCvAAAgXgEAEK8AACBeAQBAvAIAIF4BAEC8AgAgXgEAQLwCAIB4BQBAvAIAgHgFAADxCgCAeAUAAPEKAADiFQAA8QoAAOIVAADEKwAA4hUAAMQrAACIVwAAxCsAAIhXAAAQrwAAiFcAABCvAAAgXgEAEK8AACBeAQBAvAIAIF4BAEC8AgCAeAUAQLwCAIB4BQBAvAIAgHgFAADxCgCAeAUAAPEKAADiFQAA8QoAAOIVAADEKwAA4hUAAMQrAACIVwAAxCsAAIhXAAAQrwAAiFcAABCvAAAgXgEAEK8AACBeAQBAvAIAIF4BAEC8AgCAeAUAQLwCAIB4BQAA8QoAgHgFAADxCgCAeAUAAPEKAADiFQAA8QoAAOIVAADEKwAA4hUAAMQrAACIVwAAxCsAAIhXAAAQrwAAiFcAABCvAAAgXgEAEK8AACBeAQBAvAIAIF4BAEC8AgCAeAUAQLwCAIB4BQAA8QoAgHgFAADxCgCAeLUJAAAQrwAAIF4BABCvAAAgXgEAQLwCACBeAQBAvAIAgHgFAEC8AgCAeAUAAPEKAIB4BQAA8QoAAOIVAADxCgAA4hUAAMQrAADiFQAAxCsAAIhXAADEKwAAiFcAABCvAACIVwAAEK8AACBeAQAQrwAAIF4BABCvAAAgXgEAQLwCACBeAQBAvAIAgHgFAEC8AgCAeAUAAPEKAIB4BQAA8QoAAOIVAADxCgAA4hUAAMQrAADiFQAAxCsAAIhXAADEKwAAiFcAABCvAACIVwAAEK8AACBeAQAQrwAAIF4BAEC8AgAgXgEAQLwCACBeAQBAvAIAgHgFAEC8AgCAeAUAAPEKAIB4BQAA8QoAAOIVAADxCgAA4hUAAMQrAADiFQAAxCsAAIhXAADEKwAAiFcAABCvAACIVwAAEK8AACBeAQAQrwAAIF4BAEC8AgAgXgEAQLwCAIB4BQBAvAIAgHgFAEC8AgCAeAUAAPEKAIB4BQAA8QoAAOIVAADxCgAA4hUAAMQrAADiFQAAxCsAAIhXAADEKwAAiFcAABCvAACIVwAAEK8AACBeAQAQrwAAIF4BAEC8AgAgXgEAQLwCAIB4BQBAvAIAgHgFAADxCgCAeAUAAPEKAIB4BQAA8QoAAOIVAADxCgAA4hUAAMQrAADiFQAAxCsAAIhXAADEKwAAiFcAABCvAACIVwAAEK8AACBeAQAQrwAAIF4BAEC8AgAgXgEAQLwCAIB4BQBAvAIAgHgFAADxCgCAeAUAAPEKAADiFQAA8QoAAOIVAADxCgAA4hUAAMQrAADiFQAAxCsAAIhXAADEKwAAiFcAABCvAACIVwAAEK8AACBeAQAQrwAAIF4BAEC8AgAgXgEAQLwCAIB4BQBAvAIAgHgFAADxCgCAeAUAAPEKAADiFQAA8QoAAOIVAADEKwAA4hUAAMQrAADiFQAAxCsAAIhXAADEKwAAiFcAABCvAACIVwAAEK8AACBeAQAQrwAAIF4BAEC8AgAgXgEAQLwCAIB4BQBAvAIAgHgFAADxCgCAeAUAAPEKAADiFQAA8QoAAOIVAADEKwAA4hUAAMQrAACIVwAAxCsAAIhXAADEKwAAiFcAABCvAACIVwAAEK8AACBeAQAQrwAAIF4BAEC8AgAgXgEAQLwCAIB4BQBAvAIAgHgFAADxCgCAeAUAAPEKAADiFQAA8QoAAOIVAADEKwAA4hUAAMQrAACIVwAAxCsAAIhXAAAQrwAAiFcAABCvAACIVwAAEK8AACBeAQAQrwAAIF4BAEC8AgAgXgEAQLwCAIB4BQBAvAIAgHgFAADxCgCAeAUAAPEKAADiFQAA8QoAAOIVAADEKwAA4hUAAMQrAACIVwAAxCsAAIhXAAAQrwAAiFcAABCvAACIV5sAAADxCgAA4hUAAPEKAADiFQAAxCsAAOIVAADEKwAAiFcAAMQrAACIVwAAEK8AAIhXAAAQrwAAIF4BABCvAAAgXgEAQLwCACBeAQBAvAIAgHgFAEC8AgCAeAUAAPEKAIB4BQAA8QoAAOIVAADxCgAA4hUAAPEKAADiFQAAxCsAAOIVAADEKwAAiFcAAMQrAACIVwAAEK8AAIhXAAAQrwAAIF4BABCvAAAgXgEAQLwCACBeAQBAvAIAgHgFAEC8AgCAeAUAAPEKAIB4BQAA8QoAAOIVAADxCgAA4hUAAMQrAADiFQAAxCsAAOIVAADEKwAAiFcAAMQrAACIVwAAEK8AAIhXAAAQrwAAIF4BABCvAAAgXgEAQLwCACBeAQBAvAIAgHgFAEC8AgCAeAUAAPEKAIB4BQAA8QoAAOIVAADxCgAA4hUAAMQrAADiFQAAxCsAAIhXAADEKwAAiFcAAMQrAACIVwAAEK8AAIhXAAAQrwAAIF4BABCvAAAgXgEAQLwCACBeAQBAvAIAgHgFAEC8AgCAeAUAAPEKAIB4BQAA8QoAAOIVAADxCgAA4hUAAMQrAADiFQAAxCsAAIhXAADEKwAAiFcAABCvAACIVwAAEK8AAIhXAAAQrwAAIF4BABCvAAAgXgEAQLwCACBeAQBAvAIAgHgFAEC8AgCAeAUAAPEKAIB4BQAA8QoAAOIVAADxCgAA4hUAAMQrAADiFQAAxCsAAIhXAADEKwAAiFcAABCvAACIVwAAEK8AACBeAQAQrwAAIF4BABCvAAAgXgEAQLwCACBeAQBAvAIAgHgFAEC8AgCAeAUAAPEKAIB4BQAA8QoAAOIVAADxCgAA4hUAAMQrAADiFQAAxCsAAIhXAADEKwAAiFcAABCvAACIVwAAEK8AACBeAQAQrwAAIF4BAEC8AgAgXgEAQLwCACBeAQBAvAIAgHgFAEC8AgCAeAUAAPEKAIB4BQAA8QoAAOIVAADxCgAA4hUAAMQrAADiFQAAxCsAAIhXAADEKwAAiFcAABCvAACIVwAAEK8AACBeAQAQrwAAIF4BAEC8AgAgXgEAQLwCAIB4BQBAvAIAgHgFAEC8AgCAeAUAAPEKAIB4BQAA8QoAAOIVAADxCgAA4hUAAMQrAADiFQAAxCsAAIhXAADEKwAAiFcAABCvAACIVwAAEK8AACBeAQAQrwAAIF4BAEC8AgAgXgEAQLwCAIB4BQBAvAIAgHgFAADxCgCAeAUAAPEKAIB4BQAA8QoAAOIVAADxCgAA4hUAAMQrAADiFQAAxCsAAIhXAADEKwAAiFcAABCvAACIVwAAEK8AACBeAQAQrwAAIF4BAEC8AgAgXgEAQLwCAIB4BQBAvAIAgHgFAADxCgCAeAUAAPEKAIB4tQkAABCvAAAgXgEAEK8AACBeAQBAvAIAIF4BAEC8AgCAeAUAQLwCAIB4BQAA8QoAgHgFAADxCgAA4hUAAPEKAADiFQAAxCsAAOIVAADEKwAAiFcAAMQrAACIVwAAEK8AAIhXAAAQrwAAIF4BABCvAAAgXgEAEK8AACBeAQBAvAIAIF4BAEC8AgCAeAUAQLwCAIB4BQAA8QoAgHgFAADxCgAA4hUAAPEKAADiFQAAxCsAAOIVAADEKwAAiFcAAMQrAACIVwAAEK8AAIhXAAAQrwAAIF4BABCvAAAgXgEAQLwCACBeAQBAvAIAIF4BAEC8AgCAeAUAQLwCAMCIlrMJoH9JahsMRJp4HMAFf95FRCS2g+fw2HydHlS8ppnKM4ezPmku4KtLmqaRJMmAPm8Ebihq9jEeEUkyun+/oYoNL5zUwPMuSZKR+T5xns++Mb2jU3nvTyofq+1tMqh4LZfLo+yBPXzhmrmA7+kDvU9G4n1X9niqzcd4knTvMI3C+6+6MzhEv1o5ItK07EHDkD33hup5Vxn0qLw3nC5e+xscqYUWSCMdtf2anOMOzGh5BRpUvGYyGfE6Qnf4avV+yWRMv2YkxsFQ7sxGJB7nDPXO1TCFUH/fu2/kDiaePrP34aRGbuswv+8nMTo63pzX4Xzzi2RQR3WG+5DNUHzvoX4RsCs0Nvb6a+H36f3GPLQPztQjnVGww58k5nnV4mtwmqaRVGYO1PhdKF6HdWcvHdSc175xORKnA/Q8vMQYfoyP0JH+wT4uT33u/fY1/nxGm1Lhygh/7lVGcs/22E7TtNfrf9/Pd1T2wiqXBzkRoMbnD+Qu6MYaiw+sIXgiD/RFpZZfQL3cjZ29/wv1uByyN9H01J3QwXxvZ4cz0p93fcP0bI/5M32+nezhv+8rLTaQHY7RNtA0qHjNZrP2rgYoMwTvVpUXiKF68A3FzkfPQ1ZDcbtSb+qM0DeIJB2ix3gYfaV2Q7gW42ckD/wMSV+cYepI3yNFo20FidxwPdA5eYLGecTrcO0tDcVcqcrtGrLb5+HECHucV0eUejzmz+85mXqgU7Pxei7PmdH0O430++x027znyXX9vV/X+rYZVLwePnzYyOtA3jyTJHLZ3KADtjJKUxl5TdPfjtskPd4K06R7EeYLeZ9U9uSG6qSBrmLBA2YMv+mN5ADOxKkjN+f6nE4jjVK5HKVyyQOGEfmc628lgYGG0kjfVuVyeRSuXdttIEuXVt6vh3zQqdbitbW1VbwO9IlzPoMt1a+tPPCiOjk0iYhyEpFJe/w30h7TFLq/OD35NUP6UD35PSvzeasLH6dx6n/7+bpe/z55U00bqO3AG83zsbuP96fVEzAHfejf45xhGEAYjhAe6Bqvw/J8G6bXgtHWLGmaDvi1N03TasCPlkGHQcVrPp/3yjECZE/z3wv98wEALhQrZtfWvpZNAACIV2qFY44AgHgFAADxylAyZQAAwOVha4YpAzBY5XK5e9WNJIkk47kEIF4BRqhCoRCFQiEymUxks9nIpJkRu7wXAOIVGOPq6uqirq7OhgAYJcx5BQBAvAIAgHgFAEC8AgCAeAUAAPEKAIB4BQAA8QoAcHppmkaauhw64hUAqAFJkkSSJAIW8QoA1FbEgngFAEC8AgCAeAUAAPEKAIB4BQAA8QoAAOIVAADxCgAA4hUAAPEKAADiFQAAxCsAAOIVAADEKwAAiFcAAMQrAACIVwAAEK8AAIhXAAAQrwAAIF4BABCvAAAgXgEAQLwCACBeAQBAvAIAgHgFAEC8AgCAeAUAAPEKAIB4ZQxLbQIAQLxSa8GaRkTZpgEAhl3OJmBw0ZpGRGKzAAAXlJFXBijpkbBpjz+9/z8AgHhlRAXsb/+e9PN3AADxyojJV5EKAIhXaixhu/WdOgAAIF4BAEC8cj7McwUAxCs1xZQBAEC8UvMRK2oBAPHKiHO6qQPiFQAQr4xoqYcVACBeAQCgImcTcP56Th1I+/kYAMDQMPIKAIB4Zawy4goAiFcAABCvnK/+lsUy+goAiFdqIlwBAMQrI5IRVgBAvFIzjLwCABeWdV4RrACAeKUGMjSNSCONJEnOMAEg7efflc82bQAAEK8Me7SmUY6IcppGJknOMnck7RGsPUNWuAIA4pXhDteT3ZlEGpkkPZmkfUde+0Zq2udjIpZR8UzwOAYQr4zkt+gkuqM1olj9W0R/UwbKZ3mjD2/8jIJgBUC88pm8GfcO1LTX/+0dqOXqZyVRWWqiHP3Pax1oCAhXaoXHKoB45TMO1/7GTpMef0siie75rd0fzUS5R7Se7usGpuQuAAAuOOu81kignvr3SnCm53gnl3t8NDllNuvAlN01AIB4pW+4nu3vZ7sL037u8EycOjqbnMdtg7H+/ATgQjJtoKbfENMwjw8+C553AJ8VI68jLl7TYfjc841kAADxSr+Sc/i8ZITfRgAA8SpcP/OA7fkzjeICABewQtJ04PGRJN3RkqbpkoiYYfONZcUefzd1GgBqyO4kSdZW/nEuLVhz8QoAAJ8l0wYAABCvAAAgXgEAEK8AACBeAQBAvAIAIF4BAEC8AgCAeAUAQLwCAIB4BQAA8QoAgHgFAADxCgAA4hUAAPEKAADiFQAAxCsAAOIVAADEKwAAiFcAAMQrAACIVwAAEK8AAIhXAAAQrwAAIF4BABCvAAAgXgEAEK82AQAA4hUAAMQrAADiFQAAxCsAAIhXAADEKwAAiFcAABCvAACIVwAAEK8AACBeAQAQrwAAIF4BAEC8AgAgXgEAQLwCAIB4BQBAvAIAgHgFAADxCgCAeAUAAPEKAADiFQAA8QoAAOIVAADEKwAA4hUAAMQrAADiFQAAxCsAAIhXAADEKwAAiFcAABCvAACIVwAAEK8AACBeAQAQrwAAIF4BAEC8AgAgXgEAQLwCAIB4BQBAvAIAgHgFAADxCgCAeAUAAPEKAADiFQAA8QoAAOIVAADEKwAA4hUAAMQrAACIVwAAxCsAAIhXAADEKwAAiFcAABCvAACMTf//AJ7nogKkTcn5AAAAAElFTkSuQmCC;" vertex="1" parent="XjrGb_f5wcJ0mxQ6_9gG-1"><mxGeometry x="28" y="229" width="258.97" height="579" as="geometry"/></mxCell><mxCell id="XjrGb_f5wcJ0mxQ6_9gG-4" value="我好痛苦" style="ellipse;whiteSpace=wrap;html=1;aspect=fixed;rounded=1;sketch=0;fontColor=#1A1A1A;strokeColor=#D0CEE2;fillColor=#FAD9D5;" vertex="1" parent="XjrGb_f5wcJ0mxQ6_9gG-1"><mxGeometry x="106" y="443" width="100" height="100" as="geometry"/></mxCell><mxCell id="XjrGb_f5wcJ0mxQ6_9gG-5" value="痛苦按钮" style="text;html=1;align=center;verticalAlign=middle;resizable=0;points=[];autosize=1;strokeColor=none;fontColor=#1A1A1A;" vertex="1" parent="XjrGb_f5wcJ0mxQ6_9gG-1"><mxGeometry x="116" y="271" width="58" height="18" as="geometry"/></mxCell></root></mxGraphModel></diagram></mxfile>